<?xml version="1.0" encoding="utf-8"?>
<!-- Generator: Adobe Illustrator 21.0.0, SVG Export Plug-In . SVG Version: 6.00 Build 0)  -->
<svg version="1.1" id="图层_1" xmlns="http://www.w3.org/2000/svg" xmlns:xlink="http://www.w3.org/1999/xlink" x="0px" y="0px"
	 viewBox="0 0 200 200" enable-background="new 0 0 200 200" xml:space="preserve">
<path fill="#535152" d="M104,183.6H47.8c-9,0-16.3-7.5-16.3-16.7V42.4c0-9.2,7.3-16.7,16.3-16.7c3.7,0,6.7-3,6.7-6.7
	c0-3.7-3-6.7-6.7-6.7C31.3,12.2,18,25.8,18,42.4v124.4c0,16.7,13.4,30.2,29.8,30.2H104c3.7,0,6.7-3,6.7-6.7
	C110.7,186.6,107.7,183.6,104,183.6L104,183.6z"/>
<path fill="#535152" d="M153.9,12.2c-3.7,0-6.7,3-6.7,6.7c0,3.7,3,6.7,6.7,6.7c9,0,16.3,7.5,16.3,16.7V104c0,3.7,3,6.7,6.7,6.7
	c3.7,0,6.7-3,6.7-6.7V42.4C183.7,25.8,170.3,12.2,153.9,12.2L153.9,12.2z"/>
<path fill="#535152" d="M74.6,61.7c-3.7,0-6.7,3-6.7,6.7V75c0,3.7,3,6.7,6.7,6.7c3.7,0,6.7-3,6.7-6.7v-6.6
	C81.3,64.8,78.3,61.7,74.6,61.7L74.6,61.7z"/>
<path fill="#535152" d="M127.1,61.7c-3.7,0-6.7,3-6.7,6.7V75c0,3.7,3,6.7,6.7,6.7c3.7,0,6.7-3,6.7-6.7v-6.6
	C133.8,64.8,130.8,61.7,127.1,61.7L127.1,61.7z"/>
<path fill="#535152" d="M117.4,90c-3.1-2-7.2-1.2-9.3,1.9c0,0-2.9,4.3-7.4,4.3c-4.3,0-7-3.9-7.2-4.2c-2-3.1-6.1-4.1-9.2-2.1
	c-3.2,2-4.1,6.1-2.2,9.3c2.4,3.9,9,10.5,18.6,10.5c9.5,0,16.2-6.5,18.7-10.4C121.4,96.1,120.5,92,117.4,90L117.4,90z"/>
<path fill="#535152" d="M121,4.2H80.6c-9.9,0-17.9,8-17.9,17.9c0,9.9,8,17.9,17.9,17.9h24.2V26.6H80.6c-2.4,0-4.5-2.1-4.5-4.5
	c0-2.4,2.1-4.5,4.5-4.5H121c2.4,0,4.5,2.1,4.5,4.5c0,2.4-2.1,4.5-4.5,4.5h-16.2V40H121c9.9,0,17.9-8.1,17.9-17.9
	C139,12.2,130.9,4.2,121,4.2z"/>
<path fill="#535152" d="M156.1,121h-0.6v9.9h1.4c5.4,0,9.9,4.4,9.9,9.9v3.1c0,4.2-3.4,7.6-7.6,7.6h-21.5c-0.8,0-1.4-0.6-1.4-1.4
	v-10.4c0-4.9,3.9-8.8,8.8-8.8h10.4V121h-12.4c-8.4,0-15.3,6.8-15.3,15.3V158c0,2.1,1.7,3.9,3.9,3.9H159c8.7,0,15.9-7.1,15.9-15.9
	v-6.3C174.9,129.4,166.5,121,156.1,121z"/>
<path fill="#535152" d="M162.9,152.1h-29.2c-3.2,0-5.8,2.6-5.8,5.8v19.7c0,9.5,7.8,17.4,17.4,17.4h14.4v-8.5h-13.4
	c-5.4,0-9.7-4.3-9.7-9.7v-12.5c0-1.3,1.1-2.4,2.4-2.4h25.6c4.3,0,7.8,3.5,7.8,7.8v7.5c0,5.1-4.2,9.3-9.3,9.3h-3.4v8.5h3.2
	c9.8,0,17.8-8,17.8-17.8v-7.3C180.7,160.1,172.7,152.1,162.9,152.1z"/>
</svg>
