<?xml version="1.0" encoding="utf-8"?>
<!-- Generator: Adobe Illustrator 21.0.0, SVG Export Plug-In . SVG Version: 6.00 Build 0)  -->
<svg version="1.1" id="图层_1" xmlns="http://www.w3.org/2000/svg" xmlns:xlink="http://www.w3.org/1999/xlink" x="0px" y="0px"
	 viewBox="0 0 200 200" enable-background="new 0 0 200 200" xml:space="preserve">
<path fill="#535152" d="M118,122.3c1.3,0,2.5-0.4,3.6-1.2c16.3-12.5,23.8-26.8,23.8-45.2c0-3.3-2.7-6-6-6c-3.3,0-6,2.7-6,6
	c0,14.6-5.9,25.6-19.2,35.8c-2.6,2-3.1,5.7-1.1,8.3C114.4,121.5,116.2,122.3,118,122.3L118,122.3z"/>
<path fill="#535152" d="M60.1,111.3c0,0-0.1-0.1-0.1-0.1c-13.1-10.3-18.6-20.9-18.6-35.3c0-3.3-2.7-6-6-6c-3.3,0-6,2.7-6,6
	c0,15.9,5.7,28.8,17.9,40.2c-18.5,14.5-28.8,29.4-33.9,48.8c-0.8,3.2,1.1,6.4,4.3,7.3c0.5,0.1,1,0.2,1.5,0.2c2.6,0,5.1-1.8,5.8-4.5
	c4.8-18.4,15.4-32.4,35.3-46.6c2.7-1.9,3.3-5.6,1.4-8.3C61.3,112.2,60.7,111.7,60.1,111.3L60.1,111.3z"/>
<path fill="#535152" d="M34,63.5c0.3,0,0.7,0,1-0.1c3.2-0.6,5.4-3.7,4.8-6.9c0-0.2-2.8-16.6,7.5-29c7.8-9.3,21.2-14,39.9-14
	c18.6,0,32.1,4.7,39.9,14c10.4,12.2,7.8,28.9,7.8,29.1c-0.6,3.2,1.6,6.3,4.9,6.9c3.2,0.6,6.3-1.6,6.9-4.9
	c0.2-0.9,3.6-22.1-10.3-38.7C126.2,7.8,109.7,1.6,87.3,1.6c-22.4,0-38.8,6.1-49,18.3C24.5,36.5,28,57.7,28.2,58.6
	C28.7,61.5,31.2,63.5,34,63.5L34,63.5z"/>
<path fill="#535152" d="M66.3,59.3c-3.3,0-6,2.7-6,6v6.3c0,3.3,2.7,6,6,6c3.3,0,6-2.7,6-6v-6.3C72.2,61.9,69.6,59.3,66.3,59.3
	L66.3,59.3z"/>
<path fill="#535152" d="M108.6,59.3c-3.3,0-6,2.7-6,6v6.3c0,3.3,2.7,6,6,6c3.3,0,6-2.7,6-6v-6.3C114.6,61.9,111.9,59.3,108.6,59.3
	L108.6,59.3z"/>
<path fill="#535152" d="M103.9,92.6c1.8-2.8,1-6.5-1.8-8.2c-2.8-1.8-6.4-1-8.2,1.8c0,0-2.5,3.7-6.5,3.7c-3.8,0-6.2-3.5-6.3-3.7
	c-1.7-2.7-5.4-3.6-8.2-1.9c-2.8,1.7-3.7,5.4-1.9,8.2c2.1,3.4,8,9.3,16.4,9.3C95.8,101.8,101.7,96,103.9,92.6L103.9,92.6z"/>
<path fill="#535152" d="M190.3,137.8c-2.1-2.1-5.5-2.1-7.5,0l-3.3,3.3c-6.7-11.9-19.5-19.6-33.4-19.6c-16.9,0-32,11.3-36.8,27.4
	c-0.8,2.8,0.8,5.8,3.6,6.6c2.8,0.8,5.8-0.8,6.6-3.6c3.5-11.6,14.4-19.8,26.6-19.8s23.1,8.1,26.6,19.8c0,0.1,0.1,0.2,0.1,0.3
	c0,0.1,0.1,0.2,0.1,0.4c0.1,0.2,0.2,0.4,0.3,0.6c0.1,0.1,0.1,0.2,0.2,0.3c0.2,0.3,0.4,0.5,0.6,0.8c0,0,0,0,0,0c0,0,0,0,0,0
	c0.2,0.2,0.5,0.4,0.7,0.6c0.1,0.1,0.2,0.1,0.3,0.2c0.2,0.1,0.4,0.2,0.6,0.3c0.1,0,0.2,0.1,0.3,0.1c0.2,0.1,0.4,0.1,0.6,0.2
	c0.1,0,0.2,0,0.3,0.1c0.3,0.1,0.6,0.1,0.9,0.1c0.3,0,0.6,0,0.9-0.1c0.1,0,0.2,0,0.3-0.1c0.1,0,0.2,0,0.3-0.1c0.1,0,0.1-0.1,0.2-0.1
	c0.2-0.1,0.4-0.1,0.5-0.2c0.2-0.1,0.3-0.2,0.5-0.2c0.1-0.1,0.3-0.2,0.4-0.3c0.2-0.1,0.3-0.2,0.5-0.4c0.1-0.1,0.1-0.1,0.2-0.1
	l8.8-8.8C192.4,143.3,192.4,139.9,190.3,137.8L190.3,137.8z"/>
<path fill="#535152" d="M180.1,164.2c-2.8-0.8-5.8,0.8-6.6,3.6c-3.5,11.6-14.4,19.8-26.6,19.8c-12.2,0-23.1-8.1-26.6-19.8
	c0-0.1-0.1-0.1-0.1-0.2c-0.1-0.2-0.1-0.4-0.2-0.5c-0.1-0.2-0.2-0.3-0.2-0.5c-0.1-0.1-0.2-0.3-0.3-0.4c-0.1-0.2-0.2-0.3-0.4-0.5
	c-0.1-0.1-0.1-0.1-0.1-0.2c-0.1-0.1-0.1-0.1-0.2-0.1c-0.1-0.1-0.3-0.3-0.5-0.4c-0.1-0.1-0.3-0.2-0.4-0.3c-0.2-0.1-0.3-0.2-0.5-0.2
	c-0.2-0.1-0.3-0.1-0.5-0.2c-0.2-0.1-0.3-0.1-0.5-0.1c-0.2,0-0.3-0.1-0.5-0.1c-0.2,0-0.3,0-0.5,0c-0.2,0-0.3,0-0.5,0
	c-0.2,0-0.3,0-0.5,0c-0.2,0-0.4,0.1-0.6,0.1c-0.1,0-0.2,0-0.2,0c-0.1,0-0.1,0.1-0.2,0.1c-0.2,0.1-0.4,0.1-0.5,0.2
	c-0.2,0.1-0.3,0.1-0.4,0.2c-0.1,0.1-0.3,0.2-0.4,0.3c-0.2,0.1-0.3,0.2-0.4,0.4c-0.1,0.1-0.1,0.1-0.2,0.1l-8.8,8.8
	c-2.1,2.1-2.1,5.5,0,7.5c1,1,2.4,1.6,3.8,1.6c1.4,0,2.7-0.5,3.8-1.6l3.3-3.3c6.7,11.9,19.5,19.6,33.4,19.6c16.9,0,32-11.3,36.8-27.4
	C184.6,168,183,165,180.1,164.2L180.1,164.2z"/>
</svg>
