<?xml version="1.0" encoding="utf-8"?>
<!-- Generator: Adobe Illustrator 21.0.0, SVG Export Plug-In . SVG Version: 6.00 Build 0)  -->
<svg version="1.1" id="图层_1" xmlns="http://www.w3.org/2000/svg" xmlns:xlink="http://www.w3.org/1999/xlink" x="0px" y="0px"
	 viewBox="0 0 200 200" enable-background="new 0 0 200 200" xml:space="preserve">
<path fill="#535152" d="M93.6,95.1c-3.1,0-5.6,2.5-5.6,5.6v5.4c0,3.1,2.5,5.6,5.6,5.6c3.1,0,5.6-2.5,5.6-5.6v-5.4
	C99.2,97.5,96.7,95.1,93.6,95.1L93.6,95.1z"/>
<path fill="#535152" d="M120.4,95.1c-3.1,0-5.6,2.5-5.6,5.6v5.4c0,3.1,2.5,5.6,5.6,5.6c3.1,0,5.6-2.5,5.6-5.6v-5.4
	C125.9,97.5,123.5,95.1,120.4,95.1L120.4,95.1z"/>
<path fill="#535153" d="M150,82.5c-2.1-2.1-5.5-2.1-7.5,0l-3.3,3.3c-6.7-11.9-19.5-19.6-33.4-19.6c-16.9,0-32,11.3-36.8,27.4
	c-0.8,2.8,0.8,5.8,3.6,6.6c2.8,0.8,5.8-0.8,6.6-3.6c3.5-11.6,14.4-19.8,26.6-19.8s23.1,8.1,26.6,19.8c0,0.1,0.1,0.2,0.1,0.3
	s0.1,0.2,0.1,0.4c0.1,0.2,0.2,0.4,0.3,0.6c0.1,0.1,0.1,0.2,0.2,0.3c0.2,0.3,0.4,0.5,0.6,0.8l0,0l0,0c0.2,0.2,0.5,0.4,0.7,0.6
	c0.1,0.1,0.2,0.1,0.3,0.2c0.2,0.1,0.4,0.2,0.6,0.3c0.1,0,0.2,0.1,0.3,0.1c0.2,0.1,0.4,0.1,0.6,0.2c0.1,0,0.2,0,0.3,0.1
	c0.3,0.1,0.6,0.1,0.9,0.1c0.3,0,0.6,0,0.9-0.1c0.1,0,0.2,0,0.3-0.1c0.1,0,0.2,0,0.3-0.1c0.1,0,0.1-0.1,0.2-0.1
	c0.2-0.1,0.4-0.1,0.5-0.2c0.2-0.1,0.3-0.2,0.5-0.2c0.1-0.1,0.3-0.2,0.4-0.3c0.2-0.1,0.3-0.2,0.5-0.4c0.1-0.1,0.1-0.1,0.2-0.1
	l8.8-8.8C152.1,88,152.1,84.6,150,82.5L150,82.5z"/>
<path fill="#535153" d="M139.8,108.9c-2.8-0.8-5.8,0.8-6.6,3.6c-3.5,11.6-14.4,19.8-26.6,19.8c-12.2,0-23.1-8.1-26.6-19.8
	c0-0.1-0.1-0.1-0.1-0.2c-0.1-0.2-0.1-0.4-0.2-0.5c-0.1-0.2-0.2-0.3-0.2-0.5c-0.1-0.1-0.2-0.3-0.3-0.4c-0.1-0.2-0.2-0.3-0.4-0.5
	c-0.1-0.1-0.1-0.1-0.1-0.2c-0.1-0.1-0.1-0.1-0.2-0.1c-0.1-0.1-0.3-0.3-0.5-0.4c-0.1-0.1-0.3-0.2-0.4-0.3c-0.2-0.1-0.3-0.2-0.5-0.2
	c-0.2-0.1-0.3-0.1-0.5-0.2c-0.2-0.1-0.3-0.1-0.5-0.1s-0.3-0.1-0.5-0.1s-0.3,0-0.5,0s-0.3,0-0.5,0s-0.3,0-0.5,0s-0.4,0.1-0.6,0.1
	c-0.1,0-0.2,0-0.2,0c-0.1,0-0.1,0.1-0.2,0.1c-0.2,0.1-0.4,0.1-0.5,0.2c-0.2,0.1-0.3,0.1-0.4,0.2c-0.1,0.1-0.3,0.2-0.4,0.3
	c-0.2,0.1-0.3,0.2-0.4,0.4c-0.1,0.1-0.1,0.1-0.2,0.1l-8.8,8.8c-2.1,2.1-2.1,5.5,0,7.5c1,1,2.4,1.6,3.8,1.6s2.7-0.5,3.8-1.6l3.3-3.3
	c6.7,11.9,19.5,19.6,33.4,19.6c16.9,0,32-11.3,36.8-27.4C144.3,112.7,142.7,109.7,139.8,108.9L139.8,108.9z"/>
<path fill="#525151" d="M72,166.4C71.6,180,61.7,186,52.5,186c-11,0-19.8-8.9-19.8-19.8c0-11,8.9-19.8,19.8-19.8
	C61.8,146.3,72,156.9,72,166.4c3.9,0.1,6.7,0,10.6,0.3c0.8-8.1-14.1-31.7-29.8-31.7c-17,0-30.8,13.8-30.8,30.8
	c0,17,13.8,30.8,30.8,30.8c14.9,0,29.2-15.4,29.8-30C79.1,165.4,75.8,166.5,72,166.4z"/>
<path fill="#525151" d="M41.2,6.3C22.5,6.3,7.3,21.5,7.3,40.2c0,17.3,14.7,33.1,35.9,33.5c0-3.6-1-6.7-1-10.3
	c-11.6,0.8-24.6-11.5-24.6-23c0-12.7,10.3-23,23-23c12.7,0,23,10.3,23,23c0,10.5-10.5,22.7-21.4,23c0,3.7,0.3,6.7,0.3,10.4
	C59,72.3,75,56.8,75,40.2C75,21.5,59.9,6.3,41.2,6.3z"/>
<path fill="#525151" d="M170.8,23.7c-15.7,0-28.5,12.8-28.5,28.5c0,13.8,17.4,28.1,28.1,28.2c1.3-3.8,1.3-6.3,0.3-10.3
	c-10.6-0.1-17.4-10.2-17.4-17.9c0-9.7,7.8-17.5,17.5-17.5s17.5,7.8,17.5,17.5c0,8.2-6.3,17.4-17.6,17.9c-0.1,3.7-0.4,6.6-0.3,10.3
	c10.8-0.3,28.9-14,28.9-28.2C199.3,36.4,186.6,23.7,170.8,23.7z"/>
<path fill="#525151" d="M145.7,59.4L73.1,47.1c-3-0.5-5-3.4-4.5-6.3l0,0c0.5-3,3.4-5,6.3-4.5l72.6,12.3c3,0.5,5,3.4,4.5,6.3v0
	C151.6,57.9,148.7,59.9,145.7,59.4z"/>
<path fill="#525151" d="M44,138l-9.7-63.4c-0.5-3,1.6-5.8,4.6-6.3l0.4-0.1c3-0.5,5.8,1.6,6.3,4.6l9.7,63.4c0.5,3-1.6,5.8-4.6,6.3
	l-0.4,0.1C47.3,143,44.5,141,44,138z"/>
<path fill="#525151" d="M165.7,179.4l-83.8-5.9c-3-0.2-5.3-2.9-5.1-5.9v0c0.2-3,2.9-5.3,5.9-5.1l83.8,5.9c3,0.2,5.3,2.9,5.1,5.9l0,0
	C171.3,177.3,168.7,179.6,165.7,179.4z"/>
<path fill="#525151" d="M163.4,119.5l1.7-40.5c0.1-2.9,2.6-5.2,5.6-5.1l0.3,0c2.9,0.1,5.2,2.6,5.1,5.6l-1.7,40.5
	c-0.1,2.9-2.6,5.2-5.6,5.1l-0.3,0C165.6,124.9,163.3,122.4,163.4,119.5z"/>
</svg>
