<?xml version="1.0" encoding="utf-8"?>
<!-- Generator: Adobe Illustrator 21.0.0, SVG Export Plug-In . SVG Version: 6.00 Build 0)  -->
<svg version="1.1" id="图层_1" xmlns="http://www.w3.org/2000/svg" xmlns:xlink="http://www.w3.org/1999/xlink" x="0px" y="0px"
	 viewBox="0 0 200 200" enable-background="new 0 0 200 200" xml:space="preserve">
<path fill="#525151" d="M152.7,22.3c-3.1-2.1-7.2-1.3-9.3,1.8c-2.1,3-1.3,7.2,1.8,9.3c22.8,15.3,36.4,40.8,36.4,68.1
	c0,43.8-34.6,79.7-78.1,82c-4.9,0-4.8,0-9,0c-43.5-2.3-78.1-38.2-78.1-82c0-27.3,13.6-52.8,36.4-68.1c3.1-2.1,3.9-6.2,1.8-9.3
	c-2.1-3-6.2-3.9-9.3-1.8C18.8,40.1,3,69.7,3,101.5C3,154.2,46.1,197,99,197c52.9,0,96-42.8,96-95.5C195,69.7,179.2,40.1,152.7,22.3z
	"/>
<path fill="#525151" d="M132.5,118.3h-26.8v-17.8h26.8c3.7,0,6.7-3,6.7-6.7c0-3.7-3-6.7-6.7-6.7h-17.3l14.6-14.5
	c2.6-2.6,2.6-6.8,0-9.4c-2.6-2.6-6.9-2.6-9.5,0L99,84.4L77.7,63.3c-2.6-2.6-6.9-2.6-9.5,0c-2.6,2.6-2.6,6.8,0,9.4l14.6,14.5H65.5
	c-3.7,0-6.7,3-6.7,6.7c0,3.7,3,6.7,6.7,6.7h26.8v17.8H65.5c-3.7,0-6.7,3-6.7,6.7c0,3.7,3,6.7,6.7,6.7h26.8v21c0,2.5,2.4,5.9,6.7,5.9
	c4,0,6.7-3.4,6.7-5.9v-21h26.8c3.7,0,6.7-3,6.7-6.7C139.2,121.3,136.2,118.3,132.5,118.3z"/>
<path fill="#525151" d="M75.7,6.3c-3.7,0-6.6,2.9-6.6,6.6v6.5c0,3.7,2.9,6.6,6.6,6.6c3.7,0,6.6-2.9,6.6-6.6v-6.5
	C82.3,9.3,79.4,6.3,75.7,6.3z"/>
<path fill="#525151" d="M122.7,6.3c-3.7,0-6.6,2.9-6.6,6.6v6.5c0,3.7,2.9,6.6,6.6,6.6c3.7,0,6.6-2.9,6.6-6.6v-6.5
	C129.3,9.3,126.4,6.3,122.7,6.3z"/>
<path fill="#525151" d="M81,40.8C83.4,44.5,89.9,51,99.2,51s15.9-6.4,18.3-10.2c1.9-3,1.1-7.1-1.9-9.1c-3-1.9-7.1-1.1-9.1,1.9
	c0,0-2.8,4.1-7.1,4.1c-4.2,0-6.8-3.8-7-4.1c-1.9-3-5.9-4-9.1-2.1C80,33.5,79,37.6,81,40.8z"/>
</svg>
