<?xml version="1.0" encoding="utf-8"?>
<!-- Generator: Adobe Illustrator 21.0.0, SVG Export Plug-In . SVG Version: 6.00 Build 0)  -->
<svg version="1.1" id="图层_1" xmlns="http://www.w3.org/2000/svg" xmlns:xlink="http://www.w3.org/1999/xlink" x="0px" y="0px"
	 viewBox="0 0 834 834" style="enable-background:new 0 0 834 834;" xml:space="preserve">
<style type="text/css">
	.st0{fill:#525151;}
	.st1{fill:#86BFF8;}
</style>
<path class="st0" d="M553.2,301.5c-15.3,0-27.3,12.2-27.3,27.3v26.9c0,15.3,12.2,27.3,27.3,27.3s27.3-12.2,27.3-27.3v-26.9
	C580.4,314.2,568.4,301.5,553.2,301.5z"/>
<path class="st0" d="M748,301.5c-15.3,0-27.3,12.2-27.3,27.3v26.9c0,15.3,12.2,27.3,27.3,27.3s27.3-12.2,27.3-27.3v-26.9
	C775.2,314.2,763.2,301.5,748,301.5z"/>
<path class="st0" d="M575.1,444.3c9.8,15.6,36.7,42.5,75.3,42.5s65.8-26.4,75.6-42c8.1-12.5,4.5-29.5-8.1-37.5
	c-12.5-8.1-29.5-4.5-37.5,8.1c0,0-11.7,17-29.5,17c-17.5,0-28.3-15.6-29.1-17c-8.1-12.5-24.7-16.6-37.5-8.6
	C571.2,414.5,567.1,431.4,575.1,444.3z"/>
<path class="st0" d="M413.8,710.1L413.8,710.1c-13.7,0-24.8-9.1-24.8-20.2V197.8c0-11.1,11.1-20.2,24.8-20.2l0,0
	c13.7,0,24.8,9.1,24.8,20.2v492.1C438.6,701,427.5,710.1,413.8,710.1z"/>
<path class="st0" d="M389.6,227.2c-8.4,47.1-36.2,59.9-73.2,63.3c-12.5,1.2-22,12.1-20.7,24.6c0.1,1.3,0.2,4.5,0.2,4.7
	c-0.3,13.6,11.6,24.4,25.1,22.6c41.5-5.5,59.1-17.7,66.6-26.3c3.5-4.1,5.3-9.3,5.3-14.6c0-12.1-0.1-44.5-0.3-74.3
	C391.7,227.5,390.6,227.5,389.6,227.2z"/>
<path class="st0" d="M303.9,552.7c50.1-1.2,88.9-6.6,87.5-106.3c-1.2-88.9,1.5,75.6,2.1,112.5c0.1,7.7-2,15.2-6.1,20.7
	c-8.9,11.8-30.6,27.4-82.6,29.9l-58.2,0.2c-11.7,0-21.2-12.5-21.4-28.1l0,0c-0.2-15.9,9.5-29,21.4-28.9L303.9,552.7z"/>
<path class="st0" d="M728.6,515.5L532.3,515c-52.5-1.4-89.9-2-95.9-77.7c-0.3,0-0.6,0.1-0.9,0.1c0.4,40.4,0.9,94.3,0.9,94.3
	s4.7,33.8,96.5,36.9l196.5-1.6c0,0,23.5-1.3,23.2-28.2C752.3,514.3,728.6,515.5,728.6,515.5z"/>
<path class="st1" d="M464.8,142.1c-11.8,15.8-30.6,26-51.7,26c-35.6,0-64.5-28.9-64.5-64.5s28.9-64.5,64.5-64.5s64.5,28.9,64.5,64.5
	c0,11.4-3,22.1-8.2,31.4c-0.1,0-1.7,3-1.8,3C467.7,138,467.1,138.9,464.8,142.1z M434.5,118.4l0.7-1.2c2.1-3.7,3.3-8,3.3-12.6
	c0-14.3-11.6-25.9-25.9-25.9s-25.9,11.6-25.9,25.9s11.6,25.9,25.9,25.9c8.5,0,16.1-4.1,20.8-10.4
	C434.3,118.8,434.5,118.4,434.5,118.4z" fill="#459df5"/>
<path class="st0" d="M464.8,787.1c-11.8,15.8-30.6,26-51.7,26c-35.6,0-64.5-28.9-64.5-64.5s28.9-64.5,64.5-64.5s64.5,28.9,64.5,64.5
	c0,11.4-3,22.1-8.2,31.4c-0.1,0-1.7,3-1.8,3C467.7,783,467.1,783.9,464.8,787.1z M434.5,763.4l0.7-1.2c2.1-3.7,3.3-8,3.3-12.6
	c0-14.3-11.6-25.9-25.9-25.9s-25.9,11.6-25.9,25.9c0,14.3,11.6,25.9,25.9,25.9c8.5,0,16.1-4.1,20.8-10.4
	C434.3,763.8,434.5,763.4,434.5,763.4z"/>
<path class="st1" d="M219,581.1L219,581.1c0,37.8-22.9,68.7-51,68.7h-53.9c-1.2,0-5.1,0-5.1,0s-1.9,0-4.7,0H54.6
	c-28.1,0-51-30.9-51-68.7l0,0c0-37.8,22.9-68.7,51-68.7H168C196.1,512.4,219,543.3,219,581.1z M146.7,549.5H77.2
	c-17.1,0-31.3,13.8-31.3,30.7l0,0c0,16.9,14.1,30.7,31.3,30.7h30.4c1.7,0,2.9,0,2.9,0s2.4,0,3.2,0h33.1c17.1,0,31.3-13.8,31.3-30.7
	l0,0C177.9,563.3,163.8,549.5,146.7,549.5z" fill="#459df5"/>
<path class="st1" d="M289.6,315.6L289.6,315.6c0,31.3-19.1,57-42.3,57h-44.8c-1,0-4.2,0-4.2,0s-1.7,0-4,0h-41.1
	c-23.3,0-42.3-25.7-42.3-57l0,0c0-31.3,19.1-57,42.3-57h94C270.5,258.6,289.6,284.2,289.6,315.6z M226.6,289.4h-56.6
	c-14,0-25.5,11.5-25.5,25.5l0,0c0,14,11.5,25.5,25.5,25.5h24.7c1.4,0,2.4,0,2.4,0s1.9,0,2.5,0h26.9c14,0,25.5-11.5,25.5-25.5l0,0
	C252.1,300.8,240.6,289.4,226.6,289.4z" fill="#459df5"/>
</svg>
