<?xml version="1.0" encoding="utf-8"?>
<!-- Generator: Adobe Illustrator 21.0.0, SVG Export Plug-In . SVG Version: 6.00 Build 0)  -->
<svg version="1.1" id="图层_1" xmlns="http://www.w3.org/2000/svg" xmlns:xlink="http://www.w3.org/1999/xlink" x="0px" y="0px"
	 viewBox="0 0 834 834" style="enable-background:new 0 0 834 834;" xml:space="preserve">
<style type="text/css">
	.st0{fill:#525151;}
	.st1{fill:#86BFF8;}
</style>
<path class="st0" d="M553.2,301.5c-15.3,0-27.3,12.2-27.3,27.3v26.9c0,15.3,12.2,27.3,27.3,27.3s27.3-12.2,27.3-27.3v-26.9
	C580.4,314.2,568.4,301.5,553.2,301.5z"/>
<path class="st0" d="M748,301.5c-15.3,0-27.3,12.2-27.3,27.3v26.9c0,15.3,12.2,27.3,27.3,27.3s27.3-12.2,27.3-27.3v-26.9
	C775.2,314.2,763.2,301.5,748,301.5z"/>
<path class="st0" d="M575.1,444.3c9.8,15.6,36.7,42.5,75.3,42.5c38.6,0,65.8-26.4,75.6-42c8.1-12.5,4.5-29.5-8.1-37.5
	c-12.5-8.1-29.5-4.5-37.5,8.1c0,0-11.7,17-29.5,17c-17.5,0-28.3-15.6-29.1-17c-8.1-12.5-24.7-16.6-37.5-8.6
	C571.2,414.5,567.1,431.4,575.1,444.3z"/>
<path class="st0" d="M413.8,719.4L413.8,719.4c-12.3,0-22.3-10-22.3-22.3v-543c0-12.3,10-22.3,22.3-22.3h0c12.3,0,22.3,10,22.3,22.3
	v543C436.1,709.4,426.1,719.4,413.8,719.4z"/>
<path class="st0" d="M302.3,296.3c50.1,0,89-3.2,89-77.9s0.5,89.5,0.5,89.5s-4.1,29.4-89.5,30.8V296.3z"/>
<path class="st0" d="M304.9,567.3c50.1-0.9,88.9-4.9,87.5-79.5s2.2,89.4,2.2,89.4s-3.5,29.5-88.9,32.5l-79.3,0.2l-0.6-42.8
	L304.9,567.3z"/>
<path class="st0" d="M727.6,509.2l-196.3-0.4c-52.5-1.1-89.9-1.5-95.9-59c-0.3,0-0.6,0.1-0.9,0.1c0.4,30.7,0.9,71.6,0.9,71.6
	s4.7,25.7,96.5,28l196.5-1.2c0,0,23.5-1,23.2-21.4C751.3,508.3,727.6,509.2,727.6,509.2z"/>
<path class="st0" d="M464.8,142.1c-11.8,15.8-30.6,26-51.7,26c-35.6,0-64.5-28.9-64.5-64.5c0-35.6,28.9-64.5,64.5-64.5
	s64.5,28.9,64.5,64.5c0,11.4-3,22.1-8.2,31.4c-0.1,0-1.7,3-1.8,3C467.7,138,467.1,138.9,464.8,142.1z M434.5,118.4
	c0,0,0.7-1.2,0.7-1.2c2.1-3.7,3.3-8,3.3-12.6c0-14.3-11.6-25.9-25.9-25.9s-25.9,11.6-25.9,25.9c0,14.3,11.6,25.9,25.9,25.9
	c8.5,0,16.1-4.1,20.8-10.4C434.3,118.8,434.5,118.4,434.5,118.4z"/>
<path class="st0" d="M464.8,787.1c-11.8,15.8-30.6,26-51.7,26c-35.6,0-64.5-28.9-64.5-64.5c0-35.6,28.9-64.5,64.5-64.5
	s64.5,28.9,64.5,64.5c0,11.4-3,22.1-8.2,31.4c-0.1,0-1.7,3-1.8,3C467.7,783,467.1,783.9,464.8,787.1z M434.5,763.4
	c0,0,0.7-1.2,0.7-1.2c2.1-3.7,3.3-8,3.3-12.6c0-14.3-11.6-25.9-25.9-25.9s-25.9,11.6-25.9,25.9c0,14.3,11.6,25.9,25.9,25.9
	c8.5,0,16.1-4.1,20.8-10.4C434.3,763.8,434.5,763.4,434.5,763.4z"/>
<path class="st0" d="M229,588.9L229,588.9c0,33.5-20.3,60.9-45.2,60.9H136c-1.1,0-4.5,0-4.5,0s-1.7,0-4.2,0H83.3
	c-24.9,0-45.2-27.4-45.2-60.9v0c0-33.5,20.3-60.9,45.2-60.9h100.5C208.7,528,229,555.4,229,588.9z M164.9,560.9h-61.6
	c-15.2,0-27.7,12.2-27.7,27.2v0c0,15,12.5,27.2,27.7,27.2h26.9c1.5,0,2.6,0,2.6,0s2.1,0,2.8,0h29.3c15.2,0,27.7-12.2,27.7-27.2v0
	C192.6,573.1,180.1,560.9,164.9,560.9z"/>
<path class="st0" d="M310.6,320.9L310.6,320.9c0,28.4-17.3,51.7-38.4,51.7h-40.6c-0.9,0-3.8,0-3.8,0s-1.5,0-3.6,0h-37.3
	c-21.1,0-38.4-23.3-38.4-51.7v0c0-28.4,17.3-51.7,38.4-51.7h85.3C293.3,269.2,310.6,292.4,310.6,320.9z M253.5,297.1h-51.3
	c-12.7,0-23.1,10.4-23.1,23.1v0c0,12.7,10.4,23.1,23.1,23.1h22.4c1.3,0,2.2,0,2.2,0s1.7,0,2.3,0h24.4c12.7,0,23.1-10.4,23.1-23.1v0
	C276.6,307.5,266.2,297.1,253.5,297.1z"/>
<path class="st1" d="M165.4,561.4h-61.6c-15.2,0-27.7,12.2-27.7,27.2v0c0,15,12.5,27.2,27.7,27.2h26.9c1.5,0,2.6,0,2.6,0
	s2.1,0,2.8,0h29.3c15.2,0,27.7-12.2,27.7-27.2v0C193.1,573.6,180.7,561.4,165.4,561.4z"/>
<path class="st1" d="M434.2,118.1c0,0,0.7-1.2,0.7-1.2c2.1-3.7,3.3-8,3.3-12.6c0-14.3-11.6-25.9-25.9-25.9
	c-14.3,0-25.9,11.6-25.9,25.9c0,14.3,11.6,25.9,25.9,25.9c8.5,0,16.1-4.1,20.8-10.4C433.9,118.5,434.2,118.1,434.2,118.1z"/>
</svg>
