<?xml version="1.0" encoding="utf-8"?>
<!-- Generator: Adobe Illustrator 21.0.0, SVG Export Plug-In . SVG Version: 6.00 Build 0)  -->
<svg version="1.1" id="图层_1" xmlns="http://www.w3.org/2000/svg" xmlns:xlink="http://www.w3.org/1999/xlink" x="0px" y="0px"
	 viewBox="0 0 834 834" style="enable-background:new 0 0 834 834;" xml:space="preserve">
<style type="text/css">
	.st0{fill:#525151;}
	.st1{fill:#86BFF8;}
</style>
<path class="st0" d="M611.1,219.7l121.7-0.7c16.5,0,30,13.5,30,30v174.5c0,0,6.2,18.2,26.4,18.2c20.2,0,26.7-18.2,26.7-18.2V216.5
	c0-28.6-23.5-52.1-52.1-52.1l-152.8-1.2c0,0-28.3,4.8-28.3,28.1C583,218,611.1,219.7,611.1,219.7z"/>
<path class="st0" d="M375.2,584.6H93c-16.5,0-30-13.5-30-30V249.2c0-16.5,13.5-30,30-30h122.2c0,0,27.6-1,27.6-25.7
	c0-27.8-27.6-29-27.6-29l-156.4-0.2c-28.6,0-52.1,23.5-52.1,52.1v374.4c0,28.6,23.5,52.1,52.1,52.1h316.5c0,0,27.9-0.5,27.9-27.3
	C403,589,375.2,584.6,375.2,584.6z"/>
<path class="st0" d="M313.7,103.5c-15.3,0-27.3,12.2-27.3,27.3v26.9c0,15.3,12.2,27.3,27.3,27.3s27.3-12.2,27.3-27.3v-26.9
	C340.9,116.2,328.9,103.5,313.7,103.5z"/>
<path class="st0" d="M508.5,103.5c-15.3,0-27.3,12.2-27.3,27.3v26.9c0,15.3,12.2,27.3,27.3,27.3c15.1,0,27.3-12.2,27.3-27.3v-26.9
	C535.7,116.2,523.7,103.5,508.5,103.5z"/>
<path class="st0" d="M335.6,246.3c9.8,15.6,36.7,42.5,75.3,42.5s65.8-26.4,75.6-42c8.1-12.5,4.5-29.5-8.1-37.5
	c-12.5-8.1-29.5-4.5-37.5,8.1c0,0-11.7,17-29.5,17c-17.5,0-28.3-15.6-29.1-17c-8.1-12.5-24.7-16.6-37.5-8.6
	C331.7,216.5,327.6,233.4,335.6,246.3z"/>
<path class="st1" d="M820.1,517c-9.1-9.1-23.7-9.1-32.7,0l-14.2,14.2C744,479.8,688.6,446,628,446c-73.2,0-138.9,49-159.8,119.2
	c-3.6,12.3,3.3,25.2,15.6,28.8c12.3,3.6,25.2-3.3,28.8-15.6c15.1-50.6,62.6-85.9,115.4-85.9c52.8,0,100.3,35.3,115.4,85.9
	c0.2,0.3,0.3,0.7,0.5,1.2c0.2,0.5,0.3,1,0.7,1.5c0.3,0.9,0.9,1.7,1.4,2.6c0.2,0.3,0.3,0.9,0.7,1.2c0.9,1.2,1.7,2.4,2.7,3.3l0,0
	l0.2,0.2c1,0.9,2.1,1.7,3.1,2.6c0.3,0.3,0.9,0.5,1.2,0.7c0.9,0.5,1.5,0.9,2.4,1.4c0.5,0.2,0.9,0.3,1.4,0.5c0.9,0.3,1.9,0.7,2.7,0.9
	c0.3,0.2,0.7,0.2,1.2,0.3c1.4,0.2,2.7,0.3,4.1,0.3c1.4,0,2.6-0.2,3.9-0.3c0.3,0,0.9-0.2,1.2-0.3c0.5-0.2,1-0.2,1.4-0.3
	c0.3-0.2,0.7-0.3,1-0.3c0.9-0.3,1.5-0.5,2.2-1c0.7-0.3,1.4-0.7,2.1-1c0.7-0.3,1.2-0.9,1.9-1.2c0.7-0.5,1.4-1,1.9-1.5
	c0.2-0.2,0.5-0.3,0.9-0.7l38.4-38.4C829.2,540.7,829.2,525.9,820.1,517L820.1,517z"/>
<path class="st1" d="M776.3,631.5c-12.2-3.6-25.2,3.3-28.8,15.6c-15.1,50.6-62.6,85.9-115.4,85.9s-100.3-35.3-115.4-85.9
	c-0.2-0.3-0.3-0.7-0.3-1c-0.3-0.9-0.5-1.5-0.9-2.2c-0.3-0.7-0.7-1.4-1-2.1c-0.3-0.7-0.9-1.2-1.2-1.7c-0.5-0.7-1-1.4-1.5-2.1
	c-0.2-0.2-0.3-0.5-0.7-0.9c-0.2-0.2-0.5-0.3-0.9-0.7c-0.7-0.5-1.2-1-1.9-1.5c-0.5-0.3-1.2-0.9-1.7-1.2c-0.7-0.3-1.4-0.7-2.1-1
	c-0.7-0.3-1.4-0.7-2.1-0.9c-0.7-0.2-1.4-0.5-2.1-0.7c-0.7-0.2-1.4-0.3-2.2-0.5c-0.7-0.2-1.5-0.2-2.2-0.2c-0.7,0-1.5,0-2.2,0
	s-1.4,0.2-2.1,0.2c-0.9,0.2-1.7,0.3-2.4,0.5c-0.3,0-0.7,0.2-1,0.2c-0.3,0.2-0.7,0.3-0.9,0.3c-0.9,0.3-1.5,0.5-2.4,1
	c-0.7,0.3-1.4,0.7-1.9,1c-0.7,0.3-1.2,0.9-1.9,1.2c-0.7,0.5-1.4,1-1.9,1.5c-0.2,0.2-0.5,0.3-0.9,0.7L440,675.6
	c-9.1,9.1-9.1,23.7,0,32.7c4.5,4.5,10.5,6.9,16.5,6.9c6,0,11.8-2.2,16.5-6.9l14.2-14.2c29.1,51.4,84.5,85.2,145.2,85.2
	c73.2,0,138.9-49,159.8-119.2C795.5,648.2,788.4,635.1,776.3,631.5L776.3,631.5z"/>
</svg>
