<?xml version="1.0" encoding="utf-8"?>
<!-- Generator: Adobe Illustrator 21.0.0, SVG Export Plug-In . SVG Version: 6.00 Build 0)  -->
<svg version="1.1" id="图层_1" xmlns="http://www.w3.org/2000/svg" xmlns:xlink="http://www.w3.org/1999/xlink" x="0px" y="0px"
	 viewBox="0 0 834 834" style="enable-background:new 0 0 834 834;" xml:space="preserve">
<style type="text/css">
	.st0{fill:#525151;}
	.st1{fill:#86BFF8;}
</style>
<path class="st0" d="M821.6,560.6l-87.9-271.1c-17.7-63.4-52.1-100.4-97.6-105.8c-4.4-0.5-7.7-4.1-7.7-8.5v-46.3
	c0-14.4-11.8-26-26.1-24.9c-12.6,0.9-22.5,11.4-22.5,24.2v46.2c0,4.7-3.8,8.6-8.6,8.6H434.7c-4.7,0-8.6-3.8-8.6-8.6l0-45.5
	c0-14.4-11.8-26-26.1-24.9c-12.6,0.9-22.5,11.4-22.5,24.2v47c0,4.4-3.4,8.1-7.8,8.5c-45.9,4.9-78.7,40.4-97.6,105.3
	c-16.4,51.6-32.7,103.2-49.1,154.8c-2.2,6.9-2,14.3,0.7,21c3,7.5,7.6,16.2,15,24.6c1.7,1.9,3.4,3.7,5.1,5.3
	c4.6,4.4,12.2,2.5,14.1-3.5l60.8-187.9c18.7-64.3,44.7-71.8,62.6-71.8h243.3c19.5,0,46.2,12.4,62.5,71.4c0.1,0.3,0.2,0.7,0.3,1
	l86.3,266.1c0.3,1,0.5,2.2,0.4,3.2c-2.6,33.4-29.2,59.7-61.6,59.7l-170.9,0.6c-11.5,0-18.9,12.3-13.5,22.4c1.9,3.5,3.6,7.1,5.3,10.7
	c4.1,8.8,12.9,14.5,22.7,14.5l156.4,0.3c60.7,0,110.2-50.9,110.2-113.5C822.7,565.6,822.3,563,821.6,560.6z"/>
<path class="st0" d="M407.1,304.1c-13.5,0-24.4,10.9-24.4,24.4v23.8c0,13.5,10.9,24.4,24.4,24.4c13.5,0,24.4-10.9,24.4-24.4v-23.8
	C431.5,315,420.6,304.1,407.1,304.1z"/>
<path class="st0" d="M597,304.1c-13.5,0-24.4,10.9-24.4,24.4v23.8c0,13.5,10.9,24.4,24.4,24.4s24.4-10.9,24.4-24.4v-23.8
	C621.3,315,610.5,304.1,597,304.1z"/>
<path class="st0" d="M561.9,413.9c-11.3-7.2-26.4-4-33.6,7.3c-0.1,0.2-10.4,15.2-26.5,15.2c-15.6,0-25.3-14.1-25.9-15.1
	c-7.2-11.2-22.1-14.6-33.4-7.6c-11.4,7.1-14.9,22.1-7.8,33.5c8.8,14,32.7,37.8,67.1,37.8c34.2,0,58.5-23.6,67.4-37.6
	C576.5,436.3,573.2,421.2,561.9,413.9z"/>
<path class="st1" d="M509.1,659.3c-11.9-18-28.2-36-39.3-48.1c-15.1-16.3-31.2-31.9-45.7-43.8c-22.8-18.9-33.2-23-39-24.3
	c-11.4-2.5-22.7,1.3-33.7,11.2c-7.3,6.8-13.9,15.6-20.4,24.4c-4.4,6.2-11.4,15.5-15.9,19.1l-1.5,1.2l-1.7-0.7
	c-3.3-1.6-15.9-8.6-40.5-34.3c-19.4-20.3-39.9-45.6-54.8-67.8c-14-22.4-28.8-51.2-39.6-77.1c-13.3-32.8-14.7-46.9-14.6-50.5l0.1-1.8
	l1.7-0.8c5.1-2.5,16.6-4.5,24.3-6.1c10.5-1.9,21.4-4,31.1-7.9c13.8-5.4,22.1-14.1,24.6-25.3c1.3-5.7,2.2-16.7-6-45
	c-5-17.7-12.6-38.6-21.2-59.2c-6.4-15.3-16.6-37.1-27.9-55.3c-12.7-20.3-23.1-30.1-34.2-32.5c-27.7-6.1-70.1,27.3-82.5,37.8
	c-15.8,13.4-54,48.9-62.7,88.2c-8.1,36.8,6.5,90,20,128.5c18.3,51.6,46.9,109.2,80.3,161.7l11.2,17.2
	c34.8,52,75.9,101.4,115.5,139.7c29.6,28.2,72.9,63.7,110.3,72c16.6,3.7,35,2.6,52.3-0.8l0.1-0.3c5.2-1.3,9.8-5.4,11-10.8
	c1.7-7.8-3.3-15.8-11.4-17.6c-2.3-0.5-4.5-0.4-6.7,0c-14.7,2.8-28.2,2.8-38.4,0.5c-23.7-5.2-58.6-28.6-96.1-64.3
	C219.3,650,179.9,602.2,146.3,552l-10.7-16.5c-32.2-51.1-59.8-106.3-77.3-155.9c-17.2-48.4-24-89.3-18.9-112.6
	c4.6-20.7,23.9-47.1,51.5-70.8c12.1-10.3,24.8-19.5,36.3-25.4c12.2-6.6,18.8-7.3,20.4-7.5l1.2,0l1,0.8c5.8,4.3,22,25.3,41.9,73.7
	c7.6,18.2,14.2,36.9,18.7,52.6c5.5,19.6,5.5,27.7,5.4,29.8l0,1.2l-0.8,0.7c-0.8,1-3.3,2.6-9.3,4.6c-6.3,2.2-14.5,3.4-22.2,5
	c-9.3,1.9-19.2,3.6-27.2,6.6c-12.7,4.7-19.8,12.2-22.1,22.2c-1.1,5.2-4.2,20.5,16.1,69.8c11.4,27.5,27,58.1,41.9,81.9l0.2,0.4
	c15.7,23.3,37.3,50.4,57.9,71.8c37.1,38.6,52.5,42.6,57.7,43.8l0.6,0.1c9.9,2.2,19.9-1.3,29.3-10.4c6.2-5.9,11.9-13.6,17.6-21.4
	c4.7-6.2,9.3-13,14-17.7c4-4.2,6.5-5.8,8.1-6.3l1-0.4l1.1,0.5c2,0.7,9.2,4.1,25.3,17.3c12.4,10.3,27.1,24.4,40.7,38.8
	c36.3,38.1,48.6,61.3,50.4,68.4l0.3,1.3l-0.5,1.1c-0.9,1.3-4.6,6.8-15.6,14.9c-4,3-8.4,6-13.3,8.8l-0.4,0.2c-3.2,2-5.4,5.1-6.2,8.9
	c-1.7,7.8,3.3,15.8,11.4,17.6c4.1,0.9,7.9,0.2,11.1-1.8c18.4-11,39-26.6,42.7-43.6C527.2,692.5,522.3,678.8,509.1,659.3L509.1,659.3
	z"/>
</svg>
