<?xml version="1.0" encoding="utf-8"?>
<!-- Generator: Adobe Illustrator 21.0.0, SVG Export Plug-In . SVG Version: 6.00 Build 0)  -->
<svg version="1.1" id="图层_1" xmlns="http://www.w3.org/2000/svg" xmlns:xlink="http://www.w3.org/1999/xlink" x="0px" y="0px"
	 viewBox="0 0 200 200" enable-background="new 0 0 200 200" xml:space="preserve">
<path fill="#535152" d="M154.7,18.8c-3.1-2.1-7.4-1.3-9.5,1.8c-2.1,3.1-1.3,7.4,1.8,9.5c23.3,15.8,37.2,41.9,37.2,70
	c0,46.6-37.9,84.5-84.5,84.5c-46.6,0-84.5-37.9-84.5-84.5c0-28.1,13.9-54.3,37.2-70c2.2-1.5,4.5-6.8,2-10.3c-3-3.4-8.1-2.1-9.7-1
	C17.8,37.1,1.7,67.5,1.7,100.2c0,54.1,44,98.2,98.2,98.2c54.1,0,98.2-44,98.2-98.2C198,67.5,181.8,37.1,154.7,18.8z"/>
<path fill="#535152" d="M104.7,77.3c3.8,0,6.8-3.1,6.8-6.8v-2.3c0-3.8-3.1-6.8-6.8-6.8c-3.8,0-6.8,3.1-6.8,6.8v2.3
	C97.9,74.3,101,77.3,104.7,77.3L104.7,77.3z"/>
<path fill="#535152" d="M121.8,134.4c-2.1-3.1-6.4-4-9.5-1.8l-8.1,5.5l7.3-46c0.4-2.7-0.8-5.4-3.1-6.9c-2.3-1.5-5.3-1.4-7.5,0.1
	L79.7,99.8c-3.1,2.1-4,6.4-1.8,9.5c2.1,3.1,6.4,4,9.5,1.8l8.1-5.5l-7.3,46c-0.4,2.7,0.8,5.4,3.1,6.9c1.1,0.7,2.4,1.1,3.7,1.1
	c1.3,0,2.7-0.4,3.8-1.2L120,144C123.1,141.8,124,137.6,121.8,134.4L121.8,134.4z"/>
<path fill="#525151" d="M75.8,2c-3.8,0-6.8,3-6.8,6.8v6.7c0,3.8,3,6.8,6.8,6.8s6.8-3,6.8-6.8V8.8C82.6,5.1,79.6,2,75.8,2z"/>
<path fill="#525151" d="M124.5,2c-3.8,0-6.8,3-6.8,6.8v6.7c0,3.8,3,6.8,6.8,6.8c3.8,0,6.8-3,6.8-6.8V8.8C131.3,5.1,128.3,2,124.5,2z
	"/>
<path fill="#525151" d="M81.3,37.7c2.5,3.9,9.2,10.6,18.8,10.6s16.5-6.6,18.9-10.5c2-3.1,1.1-7.4-2-9.4c-3.1-2-7.4-1.1-9.4,2
	c0,0-2.9,4.3-7.4,4.3c-4.4,0-7.1-3.9-7.3-4.3c-2-3.1-6.2-4.1-9.4-2.1C80.3,30.2,79.3,34.5,81.3,37.7z"/>
</svg>
