<?xml version="1.0" encoding="utf-8"?>
<!-- Generator: Adobe Illustrator 21.0.0, SVG Export Plug-In . SVG Version: 6.00 Build 0)  -->
<svg version="1.1" id="图层_1" xmlns="http://www.w3.org/2000/svg" xmlns:xlink="http://www.w3.org/1999/xlink" x="0px" y="0px"
	 viewBox="0 0 200 200" enable-background="new 0 0 200 200" xml:space="preserve">
<path fill="#515151" d="M148.9,27.6c-2.8-1.9-6.6-1.2-8.5,1.6c-1.9,2.8-1.2,6.6,1.6,8.5c20.8,14,33.2,37.4,33.2,62.4
	c0,41.5-33.8,75.2-75.2,75.2c-41.5,0-75.2-33.8-75.2-75.2c0-25,12.4-48.4,33.2-62.4c2.8-1.9,3.5-5.7,1.6-8.5
	c-1.9-2.8-5.7-3.5-8.5-1.6C26.9,43.9,12.5,71,12.5,100.1c0,48.2,39.2,87.4,87.4,87.4s87.4-39.2,87.4-87.4
	C187.4,71,173,43.9,148.9,27.6z"/>
<path d="M161.3,100.2c0,33.6-27.2,60.8-60.8,60.8s-60.8-27.2-60.8-60.8s27.2-60.8,60.8-60.8S161.3,66.6,161.3,100.2z M97.8,87.3
	c-1.2,0-2.2,1-2.2,2.2c0,1.2,1,2.2,2.2,2.2s2.2-1,2.2-2.2C100,88.3,99,87.3,97.8,87.3z"/>
<path fill="#515151" d="M78.2,12.6c-3.4,0-6.1,2.7-6.1,6.1v6c0,3.4,2.7,6.1,6.1,6.1s6.1-2.7,6.1-6.1v-6
	C84.3,15.4,81.6,12.6,78.2,12.6z"/>
<path fill="#515151" d="M121.7,12.6c-3.4,0-6.1,2.7-6.1,6.1v6c0,3.4,2.7,6.1,6.1,6.1s6.1-2.7,6.1-6.1v-6
	C127.8,15.4,125.1,12.6,121.7,12.6z"/>
<path fill="#515151" d="M83.1,44.5C85.3,48,91.3,54,99.9,54c8.6,0,14.7-5.9,16.9-9.4c1.8-2.8,1-6.6-1.8-8.4c-2.8-1.8-6.6-1-8.4,1.8
	c0,0-2.6,3.8-6.6,3.8c-3.9,0-6.3-3.5-6.5-3.8c-1.8-2.8-5.5-3.7-8.4-1.9C82.2,37.8,81.3,41.6,83.1,44.5z"/>
<path fill="#515151" d="M142.7,118.2H87.8c-3.4,0-6.1,2.7-6.1,6.1s2.7,6.1,6.1,6.1h54.9c3.4,0,6.1-2.7,6.1-6.1
	C148.8,120.9,146,118.2,142.7,118.2z"/>
<path fill="#515151" d="M61.3,118.2h-4.1c-3.4,0-6.1,2.7-6.1,6.1s2.7,6.1,6.1,6.1h4.1c3.4,0,6.1-2.7,6.1-6.1
	C67.4,120.9,64.7,118.2,61.3,118.2z"/>
<path fill="#515151" d="M142.7,83.6H87.8c-3.4,0-6.1,2.7-6.1,6.1s2.7,6.1,6.1,6.1h54.9c3.4,0,6.1-2.7,6.1-6.1
	C148.8,86.4,146,83.6,142.7,83.6z"/>
<path fill="#515151" d="M61.3,83.6h-4.1c-3.4,0-6.1,2.7-6.1,6.1s2.7,6.1,6.1,6.1h4.1c3.4,0,6.1-2.7,6.1-6.1S64.7,83.6,61.3,83.6z"/>
</svg>
