<?xml version="1.0" encoding="utf-8"?>
<!-- Generator: Adobe Illustrator 21.0.0, SVG Export Plug-In . SVG Version: 6.00 Build 0)  -->
<svg version="1.1" id="图层_1" xmlns="http://www.w3.org/2000/svg" xmlns:xlink="http://www.w3.org/1999/xlink" x="0px" y="0px"
	 viewBox="0 0 200 200" enable-background="new 0 0 200 200" xml:space="preserve">
<path fill="#535152" d="M73.5,72.2c-4.4,0-7.9,3.5-7.9,7.9v7.3c0,4.4,3.5,7.9,7.9,7.9c4.4,0,7.9-3.5,7.9-7.9v-7.3
	C81.4,75.7,77.9,72.2,73.5,72.2L73.5,72.2z"/>
<path fill="#535152" d="M131.6,72.2c-4.4,0-7.9,3.5-7.9,7.9v7.3c0,4.4,3.5,7.9,7.9,7.9c4.4,0,7.9-3.5,7.9-7.9v-7.3
	C139.5,75.7,136,72.2,131.6,72.2L131.6,72.2z"/>
<path fill="#535152" d="M102.5,128.5c10.7,0,18.2-7.4,21-11.7c2.4-3.7,1.3-8.6-2.4-10.9c-3.7-2.4-8.6-1.3-10.9,2.4
	c0,0-3.1,4.4-7.7,4.4c-4.5,0-7.3-4.1-7.5-4.4c-2.3-3.7-7.2-4.8-10.8-2.5c-3.7,2.3-4.8,7.2-2.5,10.9C84.3,121,91.8,128.5,102.5,128.5
	L102.5,128.5z"/>
<path fill="#535152" d="M190.1,120.6l-20.9-0.2l0,5.2c0,1.2,1,2.2,2.2,2.2h4.3c0.5,0,0.7,0.7,0.3,1c-26.3,16.4-49.2,33.4-75.6,49.8
	c-0.2,0.1-0.4,0.1-0.6,0c-24-16.4-51.4-33.4-75.5-49.8c-0.4-0.3-0.2-1,0.3-1h6h0c1.3,0,2.4-1.1,2.4-2.4l0.1-4.9H8.2
	c-5.5,0-7.7,7.2-3.1,10.3c29.9,19.9,62.3,40.3,91.3,60c1.8,1.2,4.2,1.3,6.1,0.1c31.6-19.8,59.8-40.2,90.6-60.1
	C197.8,127.9,195.6,120.6,190.1,120.6z"/>
<path fill="#535152" d="M167.5,13.8H34.1c-7.4,0-13.4,4.8-13.4,10.6v96.4h12.4l0-0.3V28.9c0-2.3,2.3-4.1,5.2-4.1h125.8
	c2.9,0,5.2,1.8,5.2,4.1v91.6l0,0.3h11.6V24.4C180.9,18.6,174.9,13.8,167.5,13.8z"/>
</svg>
