<?xml version="1.0" encoding="utf-8"?>
<!-- Generator: Adobe Illustrator 21.0.0, SVG Export Plug-In . SVG Version: 6.00 Build 0)  -->
<svg version="1.1" id="图层_1" xmlns="http://www.w3.org/2000/svg" xmlns:xlink="http://www.w3.org/1999/xlink" x="0px" y="0px"
	 viewBox="0 0 200 200" enable-background="new 0 0 200 200" xml:space="preserve">
<path fill="#525151" d="M180,82.2c0,18.7-8.2,36.5-22.5,48.8c-5.1,5.1,0.1,9.3,0.1,9.3s4.9,4.3,9.8-0.6
	c16.4-14.8,25.7-35.6,25.7-57.6c0-43-35.3-77.9-78.8-77.9c-8,0-15.8,1.2-23.4,3.5c-3.5,1.1-5.4,4.7-4.4,8.2c1.1,3.5,4.7,5.4,8.2,4.4
	c6.3-1.9,12.8-2.9,19.5-2.9C150.6,17.4,180,46.5,180,82.2z"/>
<path fill="#525151" d="M125.3,173.8c-4.1,3-14.9,5.8-18,5.8c-23.1,0-52.3-22.9-71.1-55.7c-15.8-27.6-22-57.7-16.2-78.5
	c2.7-9.9,7.8-17,15.1-21.1c4.2-2.4,10.4-3.9,15.9-3.9c0.7,0,1.4,0,2.1,0.1c6.4,0.5,16.9,10.9,19.1,28.5c1.4,10.7-0.5,20.5-4.9,25.6
	c-0.5,0.5-2,1.6-7.5,3.3c-6.5,2.1-6.1,6.6-5.6,8.4c1.7,6.5,5.7,16.4,9.2,22.4c2.5,4.4,7,10.6,8.3,12.4c5.6,7.7,7.3,9.7,11,9.7
	c2.1,0,3.4-0.8,5.7-2.2c1.9-1.1,7.7-4.6,10-4.6c6.3,0,14.3,3.3,21.4,8.9c13.7,10.7,16.1,23.2,13.8,31.3
	C132.7,167.5,129.1,171,125.3,173.8c3,3.3,6,6.5,9.1,9.6c4.7-4.2,10-8.8,11.9-15.5c3.5-12.3,0.5-30.6-18.4-45.3
	c-9.5-7.4-20.3-11.7-29.5-11.7c-4.7,0-9.7,2.4-14.3,5c-2.9-3.9-7.2-9.9-9.3-13.6c-2-3.5-4.3-8.8-6-13.5c3.3-1.4,6.4-3.1,8.5-5.5
	c7-8,9.9-21.1,8-35.9C82.4,26.2,68.8,8.6,54,7.5c-8.4-0.7-18.5,1.5-25.5,5.4c-10.3,5.8-17.6,15.9-21.3,29
	c-6.7,24.5-0.2,57.6,17.5,88.5c21.3,37.3,54.5,62.3,82.5,62.3c12.5,0,21.5-6.7,27.1-9.4C132.1,179.2,129.8,176.4,125.3,173.8z"/>
<path fill="#525151" d="M106.9,50.5c-3.9,0-6.9,3.1-6.9,6.9v6.8c0,3.9,3.1,6.9,6.9,6.9s6.9-3.1,6.9-6.9v-6.8
	C113.8,53.7,110.8,50.5,106.9,50.5z"/>
<path fill="#525151" d="M156.3,50.5c-3.9,0-6.9,3.1-6.9,6.9v6.8c0,3.9,3.1,6.9,6.9,6.9c3.9,0,6.9-3.1,6.9-6.9v-6.8
	C163.2,53.7,160.1,50.5,156.3,50.5z"/>
<path fill="#525151" d="M112.5,86.8c2.5,4,9.3,10.8,19.1,10.8s16.7-6.7,19.2-10.7c2-3.2,1.1-7.5-2-9.5c-3.2-2-7.5-1.1-9.5,2
	c0,0-3,4.3-7.5,4.3c-4.4,0-7.2-4-7.4-4.3c-2-3.2-6.2-4.2-9.5-2.2C111.4,79.2,110.4,83.5,112.5,86.8z"/>
</svg>
