<?xml version="1.0" encoding="utf-8"?>
<!-- Generator: Adobe Illustrator 21.0.0, SVG Export Plug-In . SVG Version: 6.00 Build 0)  -->
<svg version="1.1" id="图层_1" xmlns="http://www.w3.org/2000/svg" xmlns:xlink="http://www.w3.org/1999/xlink" x="0px" y="0px"
	 viewBox="0 0 200 200" enable-background="new 0 0 200 200" xml:space="preserve">
<path d="M37.5,156.2L41,146c3.9-11.1,3.9-14.9,3.9-15l0.4-5.7l-4.8-2.4c-20.6-10.5-27.8-32.4-27.8-48c0-29.5,33.6-53.5,74.8-53.5
	c41.5,0,74,23.5,74,53.5c-0.1,33-30.5,56.9-72.2,56.9c0,0-0.7,0-1.9,0c-2.7,0-6.7-0.1-10.8-0.7l-5.4-0.4l-6.8,5.7
	c-2.5,2.8-10.8,9.6-17.9,14.1L37.5,156.2L37.5,156.2z M52.5,131.1c0,0.8-0.1,2.8-1.1,6.7c3.7-2.9,6.7-5.5,7.6-6.6l0.4-0.4l9.4-7.8
	l8.7,0.6c6.4,0.9,11.6,0.7,11.7,0.7c37.5,0,64.7-20.8,64.8-49.3c0-25.3-29.8-45.9-66.5-45.9c-37.1,0-67.3,20.6-67.3,45.9
	c0,13.4,6.2,32.3,23.7,41.3l9.2,4.7L52.5,131.1z"/>
<path fill="#84594D" d="M163.5,178.4l-8.2-6c-9.1-6.7-14.1-12.7-16.4-15.8l-4.4,0.7c-2.9,0.4-9.7,0.4-10.5,0.4
	c-18,0-31.9-4.3-43.7-13.6l4.6-5.9c10.6,8.3,22.6,12,39.1,12c1.9,0,7.4-0.1,9.3-0.4l9.3-1.4l1.3,2.3c0,0,2.5,4.2,8.8,10
	c-0.4-5.3-0.6-10.7-0.7-11.7l-0.1-2.4l8.6-4.3c13.4-6.8,19.4-15.5,19.4-28.2c0-9.5-2-16.4-12.5-23.6l4.3-6.2
	c11.2,7.7,15.7,16.4,15.7,29.8c0,15.6-7.5,26.7-23.5,34.9l-4.2,2.1c0.3,6.3,0.9,15,1.4,17.5L163.5,178.4L163.5,178.4z"/>
</svg>
