<?xml version="1.0" encoding="utf-8"?>
<!-- Generator: Adobe Illustrator 21.0.0, SVG Export Plug-In . SVG Version: 6.00 Build 0)  -->
<svg version="1.1" id="图层_1" xmlns="http://www.w3.org/2000/svg" xmlns:xlink="http://www.w3.org/1999/xlink" x="0px" y="0px"
	 viewBox="0 0 200 200" enable-background="new 0 0 200 200" xml:space="preserve">
<path fill="#525151" d="M72.6,101c-3.7,0-6.7,3-6.7,6.7v6.5c0,3.7,3,6.7,6.7,6.7c3.7,0,6.7-3,6.7-6.7v-6.5
	C79.2,104,76.2,101,72.6,101L72.6,101z"/>
<path fill="#525151" d="M124.7,101c-3.7,0-6.7,3-6.7,6.7v6.5c0,3.7,3,6.7,6.7,6.7c3.7,0,6.7-3,6.7-6.7v-6.5
	C131.4,104,128.4,101,124.7,101L124.7,101z"/>
<path fill="#525151" d="M115.1,131.3c-3.1-2-7.2-1.2-9.2,1.9c0,0-2.9,4.2-7.3,4.2c-4.3,0-6.9-3.9-7.1-4.1c-2-3.1-6-4-9.2-2.1
	c-3.1,1.9-4.1,6.1-2.2,9.2c2.4,3.9,9,10.4,18.4,10.4c9.4,0,16.1-6.5,18.5-10.3C119,137.4,118.1,133.3,115.1,131.3L115.1,131.3z"/>
<path fill="#525151" d="M187.4,94.4c3.7,0,6.7-3,6.7-6.7V47.6c0-13.5-8.3-27.1-26.7-27.1h-0.8c-5-9.8-16-16.7-28.6-16.7H63.2
	c-12.6,0-23.5,6.8-28.6,16.7h-3c-15.1,0-27.5,10.7-28.8,24.4c-0.1,0.4-0.1,0.9-0.1,1.3v120.1c0,16,13,28.9,28.9,28.9h133.5
	c13.3,0,24.5-9,27.9-21.2c0.7-1,1-2.3,1-3.6v-6.1c0-3.7-3-6.7-6.7-6.7c-3.7,0-6.7,3-6.7,6.7v2c0,8.6-7,15.6-15.6,15.6H31.6
	c-8.6,0-15.6-7-15.6-15.6V69.9c4.5,2.7,9.8,4.3,15.6,4.3h70.6V60.8H31.6c-8.6,0-15.6-6.1-15.6-13.5c0-7.4,7-13.5,15.6-13.5v14.5
	c0,3.7,3,6.7,6.7,6.7c3.7,0,6.7-3,6.7-6.7V32.7c0-8.6,8.2-15.6,18.3-15.6H138c10.1,0,18.3,7,18.3,15.6v15.6c0,3.7,3,6.7,6.7,6.7
	c3.7,0,6.7-3,6.7-6.7V34c10,1.1,11.1,9.7,11.1,13.6V64c-3.9-2-8.4-3.2-13.4-3.2h-65.2v13.4h65.2c8.1,0,13.4,5,13.4,12.7v0.8
	C180.8,91.4,183.8,94.4,187.4,94.4z"/>
<path fill="#525151" d="M63.5,41.6h74.9c3.7,0,6.7-3,6.7-6.7s-3-6.7-6.7-6.7H63.5c-3.7,0-6.7,3-6.7,6.7S59.8,41.6,63.5,41.6
	L63.5,41.6z"/>
<path fill="#525151" d="M182.1,128.4v8.4h-18.4c-6.6,0-11.9-5-11.9-11.1c0-6.1,5.3-11.1,11.9-11.1h18.4V128.4h13.4v-20.5
	c0-3.7-3-6.7-6.7-6.7h-25.1c-13.9,0-25.3,11-25.3,24.5c0,13.5,11.3,24.5,25.3,24.5h25.1c3.7,0,6.7-3,6.7-6.7v-15.1H182.1z"/>
</svg>
