<?xml version="1.0" encoding="utf-8"?>
<!-- Generator: Adobe Illustrator 21.0.0, SVG Export Plug-In . SVG Version: 6.00 Build 0)  -->
<svg version="1.1" id="图层_1" xmlns="http://www.w3.org/2000/svg" xmlns:xlink="http://www.w3.org/1999/xlink" x="0px" y="0px"
	 viewBox="0 0 834 834" style="enable-background:new 0 0 834 834;" xml:space="preserve">
<style type="text/css">
	.st0{fill:#525151;}
	.st1{fill:#86BFF8;}
</style>
<path class="st0" d="M303.6,426.9c-15.7,0-28.4,12.7-28.4,28.4v27.7c0,15.7,12.7,28.4,28.4,28.4s28.4-12.7,28.4-28.4v-27.7
	C332.1,439.6,319.3,426.9,303.6,426.9z"/>
<path class="st0" d="M525.5,426.9c-15.7,0-28.4,12.7-28.4,28.4v27.7c0,15.7,12.7,28.4,28.4,28.4c15.7,0,28.4-12.7,28.4-28.4v-27.7
	C553.9,439.6,541.2,426.9,525.5,426.9z"/>
<path class="st0" d="M484.7,555.7c-13-8.6-30.6-4.9-39.3,8c-0.1,0.2-12.4,18-31.1,18c-18.2,0-29.5-16.5-30.3-17.6
	c-8.3-13.1-25.7-17.1-39-8.9c-13.3,8.3-17.4,25.8-9.2,39.2c10.2,16.4,38.2,44.2,78.4,44.2c40,0,68.4-27.6,78.8-43.9
	C501.5,581.5,497.7,564.2,484.7,555.7z"/>
<path class="st0" d="M792.8,667.6c-15.7,0-28.4,12.7-28.4,28.4v8.6c0,36.6-29.8,66.3-66.3,66.3H129.4C92.8,771,63,741.2,63,704.6
	V294.4c19.2,11.4,41.9,18.1,66.3,18.1h578.1c34.5,0,56.9,21.2,56.9,54v3.5c0,15.7,12.7,28.4,28.4,28.4c15.7,0,28.4-12.7,28.4-28.4
	V199.1c0-57.4-35.2-115.3-113.7-115.3h-3.3C682.6,42,636.2,12.8,582.4,12.8H264c-53.8,0-100.3,29.2-121.8,71.1h-12.8
	c-64.1,0-116.9,45.7-122.6,103.9c-0.4,1.8-0.6,3.7-0.6,5.7v511.2c0,67.9,55.3,123.2,123.2,123.2H698c56.5,0,104.3-38.3,118.7-90.3
	c2.8-4.4,4.5-9.7,4.5-15.3v-26.2C821.2,680.3,808.5,667.6,792.8,667.6z M129.4,140.7v61.6c0,15.7,12.7,28.4,28.4,28.4
	s28.4-12.7,28.4-28.4V136c0-36.6,34.9-66.3,77.7-66.3h318.4c42.8,0,77.7,29.8,77.7,66.3v66.3c0,15.7,12.7,28.4,28.4,28.4
	c15.7,0,28.4-12.7,28.4-28.4v-61.1c42.5,4.7,47.4,41.5,47.4,57.9v70.1c-16.4-8.7-35.7-13.5-56.9-13.5l-578.1,0
	c-36.6,0-66.3-25.8-66.3-57.5S92.8,140.7,129.4,140.7z"/>
<path class="st0" d="M265.1,174h319.1c15.7,0,28.4-12.7,28.4-28.4s-12.7-28.4-28.4-28.4H265.1c-15.7,0-28.4,12.7-28.4,28.4
	S249.4,174,265.1,174z"/>
<path class="st1" d="M798.6,427.3H691.9c-59.3,0-107.6,46.8-107.6,104.2c0,57.5,48.3,104.2,107.6,104.2h106.7
	c15.7,0,28.4-12.7,28.4-28.4l0-151.6C827.1,440.1,814.3,427.3,798.6,427.3z M770.2,579h-78.3c-28,0-50.8-21.3-50.8-47.4
	s22.8-47.4,50.8-47.4h78.3L770.2,579z" fill="#459df5"/>
</svg>
