<?xml version="1.0" encoding="utf-8"?>
<!-- Generator: Adobe Illustrator 21.0.0, SVG Export Plug-In . SVG Version: 6.00 Build 0)  -->
<svg version="1.1" id="图层_1" xmlns="http://www.w3.org/2000/svg" xmlns:xlink="http://www.w3.org/1999/xlink" x="0px" y="0px"
	 viewBox="0 0 200 200" style="enable-background:new 0 0 200 200;" xml:space="preserve">
<style type="text/css">
	.st0{fill:#3C99E5;}
</style>
<path class="st0" d="M100.9,175.3H52c-8.2,0-14.8-6.8-14.8-15.2l0-112.8c0-8.4,6.6-15.2,14.8-15.2c3.4,0,6.1-2.7,6.1-6.1
	c0-3.4-2.7-6.1-6.1-6.1c-14.9,0-27,12.3-27,27.4v112.8c0,15.1,12.1,27.4,27,27.4h48.9c3.4,0,6.1-2.7,6.1-6.1
	C107,178,104.3,175.3,100.9,175.3z"/>
<path class="st0" d="M148.2,19.9c-3.4,0-6.1,2.7-6.1,6.1c0,3.4,2.7,6.1,6.1,6.1c8.2,0,14.8,6.8,14.8,15.2v65.9
	c0,3.4,2.7,6.1,6.1,6.1c3.4,0,6.1-2.7,6.1-6.1V47.3C175.2,32.2,163.1,19.9,148.2,19.9z"/>
<path class="st0" d="M76.3,64.8c-3.4,0-6.1,2.7-6.1,6.1v6c0,3.4,2.7,6.1,6.1,6.1s6.1-2.7,6.1-6.1v-6C82.4,67.5,79.7,64.8,76.3,64.8z
	"/>
<path class="st0" d="M123.9,64.8c-3.4,0-6.1,2.7-6.1,6.1v6c0,3.4,2.7,6.1,6.1,6.1c3.4,0,6.1-2.7,6.1-6.1v-6
	C130,67.5,127.3,64.8,123.9,64.8z"/>
<path class="st0" d="M115.1,92.4c-2.8-1.8-6.6-1.1-8.4,1.7c0,0-2.7,3.9-6.7,3.9c-3.9,0-6.3-3.5-6.5-3.8c-1.8-2.8-5.5-3.7-8.4-1.9
	c-2.9,1.8-3.7,5.5-2,8.4c2.2,3.5,8.2,9.5,16.8,9.5c8.6,0,14.7-5.9,16.9-9.4C118.7,98,117.9,94.3,115.1,92.4z"/>
<path class="st0" d="M81.8,45.1h36.6c9,0,16.3-7.3,16.3-16.3s-7.3-16.3-16.3-16.3H81.8c-9,0-16.3,7.3-16.3,16.3S72.8,45.1,81.8,45.1
	z M81.8,24.8h36.6c2.2,0,4.1,1.9,4.1,4.1s-1.9,4.1-4.1,4.1H81.8c-2.2,0-4.1-1.9-4.1-4.1S79.6,24.8,81.8,24.8z"/>
<path class="st0" d="M160.5,164.1c3.7-5.4,6-11.9,6-18.9c0-18.2-14.8-33-33-33s-33,14.8-33,33s14.8,33,33,33
	c6.8,0,13.1-2.1,18.4-5.6l13,13c1.2,1.2,2.8,1.8,4.3,1.8c1.6,0,3.1-0.6,4.3-1.8c2.4-2.4,2.4-6.2,0-8.6L160.5,164.1z M112.5,145.3
	c0-11.5,9.4-20.8,20.8-20.8c11.5,0,20.8,9.4,20.8,20.8c0,11.5-9.4,20.8-20.8,20.8C121.9,166.1,112.5,156.8,112.5,145.3z"/>
</svg>
