<?xml version="1.0" encoding="utf-8"?>
<!-- Generator: Adobe Illustrator 21.0.0, SVG Export Plug-In . SVG Version: 6.00 Build 0)  -->
<svg version="1.1" id="图层_1" xmlns="http://www.w3.org/2000/svg" xmlns:xlink="http://www.w3.org/1999/xlink" x="0px" y="0px"
	 viewBox="0 0 200 200" enable-background="new 0 0 200 200" xml:space="preserve">
<path fill="#525151" d="M194.4,80.4c-5.1-8.2-13.9-13.4-23.7-14c-0.6-0.1-1.2-0.1-1.8-0.1l-33.6,0c1.5-6.4,2.2-13,2.2-19.6
	c0-6.2-0.7-12.6-2.1-19c-0.1-0.5-0.2-0.9-0.4-1.3C131.4,13.8,120,5,106.8,5C90.7,5,77.6,18.1,77.6,34.2c0,0.7,0,1.5,0.1,2.2
	C77.2,49.1,70.6,60.7,60,67.7c-2.2,1.4-4.5,5.8-1,9.7c2.8,3,6.8,3.1,8.5,1.9C82,69.8,91,53.8,91.5,36.4c0-0.3,0-0.6,0-0.9
	c0-0.4-0.1-0.9-0.1-1.3c0-8.5,6.9-15.4,15.4-15.4c7.2,0,13.4,4.9,15,11.9c0.1,0.3,0.2,0.7,0.3,1c1,5,1.6,10.1,1.6,15
	c0,8.3-1.4,16.4-4.1,24.2c-0.7,2.1-0.4,4.4,0.9,6.3c1.3,1.8,3.4,2.9,5.6,2.9l42.7,0c0.3,0.1,0.6,0.1,1,0.1c5.3,0.2,10.2,3,13,7.5
	c1.7,2.7,2.5,5.9,2.3,9.3c0,0.2,0,0.4,0,0.6c0,0.2,0,0.4,0,0.6c0,0.1,0,0.1,0,0.2c0,0.1,0,0.2-0.1,0.3l-16.6,73
	c-0.2,0.3-0.4,0.6-0.5,0.9c-1.3,2.6-3.2,4.7-5.6,6.2c-2.4,1.5-5.1,2.3-7.9,2.4c-0.2,0-113.5,0-113.5,0c-0.1,0-0.2,0-0.3,0
	c0,0-24.5,0-24.9,0.1c-0.4,0-0.8-0.3-0.8-0.8l0.1-92c0-0.4,0.3-0.8,0.7-0.8l0.3,0c0.3,0,0.6,0.1,0.8,0l18.5,0v75
	c0,3.8,3.1,6.9,6.9,6.9c3.8,0,6.9-3.1,6.9-6.9V80.8c0-3.8-3.1-6.8-6.9-6.8c-0.3,0-26,0.1-26.4,0.1C7.6,74,1,80.5,1,88.6l-0.1,92
	c0,8,6.5,14.6,14.6,14.6c0.6,0,24.6-0.1,24.6-0.1c0.1,0,0.2,0,0.3,0c0,0,113,0.1,113.3,0.1c5.6,0,11.1-1.6,15.8-4.6
	c4.3-2.7,7.9-6.6,10.4-11.3c0.8-1.2,1.4-2.6,1.8-4.1c0-0.1,0-0.2,0.1-0.3l16.5-73c0.4-1.4,0.5-2.8,0.4-4.2
	C199.1,91.5,197.6,85.5,194.4,80.4z"/>
<path fill="#525151" d="M88.6,104.1c-3.9,0-7,3.1-7,7v6.9c0,3.9,3.1,7,7,7c3.9,0,7-3.1,7-7v-6.9C95.6,107.3,92.5,104.1,88.6,104.1z"
	/>
<path fill="#525151" d="M138.4,104.1c-3.9,0-7,3.1-7,7v6.9c0,3.9,3.1,7,7,7c3.9,0,7-3.1,7-7v-6.9
	C145.4,107.3,142.3,104.1,138.4,104.1z"/>
<path fill="#525151" d="M94.2,140.6c2.5,4,9.4,10.9,19.2,10.9s16.8-6.8,19.3-10.8c2.1-3.2,1.1-7.6-2.1-9.6c-3.2-2.1-7.6-1.1-9.6,2.1
	c0,0-3,4.4-7.6,4.4c-4.5,0-7.2-4-7.4-4.4c-2.1-3.2-6.3-4.2-9.6-2.2C93.2,133,92.1,137.3,94.2,140.6z"/>
</svg>
