<?xml version="1.0" encoding="utf-8"?>
<!-- Generator: Adobe Illustrator 21.0.0, SVG Export Plug-In . SVG Version: 6.00 Build 0)  -->
<svg version="1.1" id="图层_1" xmlns="http://www.w3.org/2000/svg" xmlns:xlink="http://www.w3.org/1999/xlink" x="0px" y="0px"
	 viewBox="0 0 848.5 844" style="enable-background:new 0 0 848.5 844;" xml:space="preserve">
<style type="text/css">
	.st0{fill:#525151;}
	.st1{fill:#86BFF8;}
</style>
<path class="st0" d="M558.4,482c-16.1,0-29.1,13-29.1,29.1v28.4c0,16.1,13,29.1,29.1,29.1s29.1-13,29.1-29.1v-28.4
	C587.5,495,574.5,482,558.4,482z"  fill="#459df5"/>
<path class="st0" d="M785.8,568.7c16.1,0,29.1-13,29.1-29.1v-28.4c0-16.1-13-29.1-29.1-29.1s-29.1,13-29.1,29.1v28.4
	C756.7,555.6,769.7,568.7,785.8,568.7z"  fill="#459df5"/>
<path class="st0" d="M704,622.4c-0.1,0.2-12.5,18.1-31.7,18.1c-18.7,0-30.3-16.9-31-18.1c-8.6-13.5-26.4-17.5-40-9.1
	c-13.7,8.5-17.9,26.5-9.4,40.1c10.5,16.8,39.2,45.3,80.4,45.3c41,0,70.1-28.3,80.8-45c8.7-13.6,4.7-31.6-8.8-40.3
	C730.6,604.9,712.6,608.8,704,622.4z"  fill="#459df5"/>
<path class="st1" d="M803.8,772.5H372.1c-16.1,0-29.1,13-29.1,29.1c0,16.1,13,29.1,29.1,29.1h431.8c16.1,0,29.1-13,29.1-29.1
	C833,785.6,819.9,772.5,803.8,772.5z"  fill="#459df5"/>
<path class="st0" d="M736.4,131.7c-2.9-36.6-19.6-69.9-46.9-93.7c-0.3-0.3-0.6-0.5-1-0.8c-27.4-23.4-62-34.7-97.7-31.7
	c-36.1,3-68.8,20.3-92.1,48.5L83.9,556.4c-4.4,5.3-7.5,11.4-9.3,18.1L19.7,780.9c-4.6,17.5,1.2,36.4,14.7,48.1
	c8.5,7.4,19.5,11.5,30.8,11.5c1.3,0,2.6-0.1,3.8-0.2c5.4-0.5,10.8-1.9,16-4.3l189.2-89.3c6.1-2.9,11.5-7,16.2-12.6l414.9-502.4
	C728.2,203.8,739.4,168.3,736.4,131.7z M246.9,695.2L82.1,772.9l48.2-181.2l327.1-396.1l121.8,97.2L246.9,695.2z M660.2,194.7
	l-43.8,53.1l-121.8-97.2l49.1-59.4c13.2-16,31.7-25.8,52-27.5c20.3-1.7,40,4.8,55.5,18.4c0.2,0.2,0.5,0.4,0.7,0.6
	c15.3,13.7,24.7,32.7,26.4,53.7C680.1,157.7,673.6,178.5,660.2,194.7z"/>
</svg>
