<?xml version="1.0" encoding="utf-8"?>
<!-- Generator: Adobe Illustrator 21.0.0, SVG Export Plug-In . SVG Version: 6.00 Build 0)  -->
<svg version="1.1" id="图层_1" xmlns="http://www.w3.org/2000/svg" xmlns:xlink="http://www.w3.org/1999/xlink" x="0px" y="0px"
	 viewBox="0 0 200 200" enable-background="new 0 0 200 200" xml:space="preserve">
<path d="M130.5,113.5c-3.7,0-6.7,3-6.7,6.7v6.6c0,3.7,3,6.7,6.7,6.7c3.7,0,6.7-3,6.7-6.7v-6.6C137.3,116.5,134.3,113.5,130.5,113.5
	L130.5,113.5z M130.5,113.5"/>
<path d="M183.2,133.6c3.7,0,6.7-3,6.7-6.7v-6.6c0-3.7-3-6.7-6.7-6.7c-3.7,0-6.7,3-6.7,6.7v6.6C176.4,130.6,179.4,133.6,183.2,133.6
	L183.2,133.6z M183.2,133.6"/>
<path d="M164.2,146c0,0-2.9,4.2-7.3,4.2c-4.3,0-7-3.9-7.2-4.2c-2-3.1-6.1-4.1-9.2-2.1c-3.2,2-4.1,6.1-2.2,9.3
	c2.4,3.9,9.1,10.5,18.6,10.5c9.5,0,16.2-6.5,18.7-10.4c2-3.1,1.1-7.3-2-9.3C170.4,142,166.2,142.9,164.2,146L164.2,146z M164.2,146"
	/>
<path d="M171.7,32.5c-0.7-8.5-4.5-16.2-10.9-21.7c-0.1-0.1-0.1-0.1-0.2-0.2c-6.3-5.4-14.4-8-22.6-7.3C129.7,4,122.1,8,116.7,14.5
	l-96,116.3c-1,1.2-1.7,2.6-2.1,4.2L5.9,182.7c-1.1,4,0.3,8.4,3.4,11.1c2,1.7,4.5,2.7,7.1,2.7c0.3,0,0.6,0,0.9,0
	c1.3-0.1,2.5-0.4,3.7-1l43.8-20.7c1.4-0.7,2.7-1.6,3.7-2.9l96-116.3C169.8,49.2,172.4,40.9,171.7,32.5L171.7,32.5z M58.5,162.9
	l-38.1,18l11.2-41.9l75.7-91.7l28.2,22.5L58.5,162.9z M154.1,47.1l-10.1,12.3l-28.2-22.5l11.4-13.8c3.1-3.7,7.3-6,12-6.4
	c4.7-0.4,9.3,1.1,12.9,4.3c0.1,0,0.1,0.1,0.2,0.1c3.5,3.2,5.7,7.6,6.1,12.4C158.7,38.5,157.2,43.3,154.1,47.1L154.1,47.1z
	 M154.1,47.1"/>
<path d="M187.3,180.8H87.4c-3.7,0-6.7,3-6.7,6.7s3,6.7,6.7,6.7h99.9c3.7,0,6.7-3,6.7-6.7S191.1,180.8,187.3,180.8L187.3,180.8z
	 M187.3,180.8"/>
</svg>
