<?xml version="1.0" encoding="utf-8"?>
<!-- Generator: Adobe Illustrator 21.0.0, SVG Export Plug-In . SVG Version: 6.00 Build 0)  -->
<svg version="1.1" id="图层_1" xmlns="http://www.w3.org/2000/svg" xmlns:xlink="http://www.w3.org/1999/xlink" x="0px" y="0px"
	 viewBox="0 0 200 200" enable-background="new 0 0 200 200" xml:space="preserve">
<path fill="#525151" d="M97.2,184.8H72.8c-9.5,0,0,0-9.5,0H44.7c-8.9,0-16.2-7.3-16.2-16.2V34.4c0-8.9,7.3-16.2,16.2-16.2
	c3.8,0,6.9-3.1,6.9-6.9s-3.1-6.9-6.9-6.9c-16.6,0-30.1,13.5-30.1,30.1v134.2c0,16.6,13.5,30.1,30.1,30.1h52.5c3.8,0,6.9-3.1,6.9-6.9
	C104.1,187.9,101,184.8,97.2,184.8z"/>
<path fill="#525151" d="M151.2,157.7c-5,5.6-16.9,18.9-21.9,24.2c-1.5,1.4-2.5,2.1-3.2,2.6c-0.2-0.4-0.4-1.4-0.4-3.2v-29.4
	c0-3.2,0.5-4,0.4-4h0c0.2-0.1,1.4-0.7,6.3-0.7h27.8C157.5,150.4,154.4,154,151.2,157.7c4.1,2.3,8.1,4.9,12,7.5
	c22.7-26.2,22.7-31.6,22.7-33.6c0-0.4,0-0.8-0.1-1.2c0.1-0.4,0.1-0.7,0.1-1.1V34.4c0-16.6-13.5-30.1-30.1-30.1
	c-3.8,0-6.9,3.1-6.9,6.9s3.1,6.9,6.9,6.9c8.9,0,16.2,7.3,16.2,16.2v94.9c0,0.2,0,0.4,0.1,0.7c-0.7,1.2-2.5,3.2-6.6,3.2h-33
	c-10.2,0-20.6,2.2-20.6,18.7v29.4c0,8.5,3.3,14.1,9.9,16.6c1.5,0.6,3,0.8,4.4,0.8c4.5,0,8.5-2.7,12.8-6.8c0.1-0.1,0.2-0.2,0.3-0.3
	c6.7-7.1,19.1-20.9,24-26.4C160.4,159.6,156.5,157.9,151.2,157.7z"/>
<path d="M129.2,181.9"/>
<path fill="#525151" d="M78.5,71c-3.9,0-6.9,3.1-6.9,6.9v6.8c0,3.9,3.1,6.9,6.9,6.9c3.9,0,6.9-3.1,6.9-6.9v-6.8
	C85.4,74.2,82.4,71,78.5,71z"/>
<path fill="#525151" d="M127.9,71c-3.9,0-6.9,3.1-6.9,6.9v6.8c0,3.9,3.1,6.9,6.9,6.9c3.9,0,6.9-3.1,6.9-6.9v-6.8
	C134.8,74.2,131.8,71,127.9,71z"/>
<path fill="#525151" d="M84.1,107.2c2.5,4,9.3,10.8,19.1,10.8s16.7-6.7,19.2-10.7c2-3.2,1.1-7.5-2-9.5c-3.2-2-7.5-1.1-9.5,2
	c0,0-3,4.3-7.5,4.3c-4.4,0-7.2-4-7.4-4.3c-2-3.2-6.2-4.2-9.5-2.2C83,99.6,82,103.9,84.1,107.2z"/>
<path fill="#535152" d="M121.3,0.7H80.9C71,0.7,63,8.7,63,18.6c0,9.9,8,17.9,17.9,17.9h24.2V23.1H80.9c-2.4,0-4.5-2.1-4.5-4.5
	c0-2.4,2.1-4.5,4.5-4.5h40.4c2.4,0,4.5,2.1,4.5,4.5c0,2.4-2.1,4.5-4.5,4.5h-16.2v13.5h16.2c9.9,0,17.9-8.1,17.9-17.9
	C139.2,8.7,131.2,0.7,121.3,0.7z"/>
</svg>
