<?xml version="1.0" standalone="no"?><!DOCTYPE svg PUBLIC "-//W3C//DTD SVG 1.1//EN" "http://www.w3.org/Graphics/SVG/1.1/DTD/svg11.dtd"><svg t="1547023933090" class="icon" style="" viewBox="0 0 1024 1024" version="1.1" xmlns="http://www.w3.org/2000/svg" p-id="1000" xmlns:xlink="http://www.w3.org/1999/xlink" width="200" height="200"><defs><style type="text/css"></style></defs><path d="M814 780c117.136 0 210 99.048 210 214a30 30 0 0 1-30 30H30A30 30 0 0 1 0 994C0 879.152 92.76 780 210 780h47.632A328.528 328.528 0 0 1 183.376 600h-1.376c-66.168 0-120-53.832-120-120s53.832-120 120-120V199.496a268.704 268.704 0 0 1-60-169.496A30 30 0 0 1 152 0h420c148.88 0 270 121.12 270 270V360c66.168 0 120 53.832 120 120s-53.832 120-120 120h-1.376a328.528 328.528 0 0 1-74.256 180h47.632z m28-360v120c33.088 0 60-26.912 60-60s-26.912-60-60-60z m-660 120v-120c-33.088 0-60 26.912-60 60s26.912 60 60 60z m390-480H184.136C198.736 161.632 286.392 240 392 240h387.864C765.264 138.368 677.608 60 572 60z m82.344 624.04a30 30 0 0 1-2.32 42.36A209.56 209.56 0 0 1 512 780a209.56 209.56 0 0 1-140.024-53.6 30 30 0 1 1 40.048-44.68A149.632 149.632 0 0 0 512 720c36.92 0 72.424-13.6 99.976-38.28a30 30 0 0 1 42.368 2.32zM242 570C242 718.88 363.12 840 512 840s270-121.12 270-270V300H392a268.432 268.432 0 0 1-150-45.608V570zM62.992 964h898.016c-14.04-69.704-75.664-124-147.008-124H701.52A328.16 328.16 0 0 1 512 900a328.16 328.16 0 0 1-189.52-60H210c-71.344 0-132.968 54.296-147.008 124zM392 480a30 30 0 1 1 0-60 30 30 0 0 1 0 60z m240 0a30 30 0 1 1 0-60 30 30 0 0 1 0 60z m-153.168 76.584a30 30 0 0 1-13.416 40.248l-60 30a30 30 0 1 1-26.832-53.664l60-30a30 30 0 0 1 40.248 13.416z m166.584 16.584a30 30 0 0 1-26.832 53.664l-60-30a30 30 0 0 1 26.832-53.664l60 30z" fill="#525151" p-id="1001"></path></svg>