<?xml version="1.0" standalone="no"?><!DOCTYPE svg PUBLIC "-//W3C//DTD SVG 1.1//EN" "http://www.w3.org/Graphics/SVG/1.1/DTD/svg11.dtd"><svg t="1552394764356" class="icon" style="" viewBox="0 0 1024 1024" version="1.1" xmlns="http://www.w3.org/2000/svg" p-id="4782" xmlns:xlink="http://www.w3.org/1999/xlink" width="128" height="128"><defs><style type="text/css"></style></defs><path d="M842.752 419.52L704 512s-12.16 4.8-17.92-4.096c-26.624-41.216-101.632-180.224-144-259.392a64 64 0 1 0-59.008 0.64c-37.504 73.6-101.888 199.04-134.4 255.68-4.8 8.32-11.648 9.856-20.608 4.8-10.048-5.76-90.24-56.256-145.92-91.456a64 64 0 1 0-39.36 28.16c21.12 88.512 59.392 246.528 77.248 304.832 4.096 13.44 8.704 16.832 23.808 16.832h537.088c14.08 0 18.944-3.456 22.976-16.832 21.568-70.848 57.536-220.032 77.504-304.832A64.192 64.192 0 0 0 960 384a64 64 0 1 0-117.248 35.52zM832 864a32 32 0 0 1-32 32h-576a32 32 0 1 1 0-64h576a32 32 0 0 1 32 32z" p-id="4783" fill="#FFD700"></path></svg>