<?xml version="1.0" encoding="utf-8"?>
<!-- Generator: Adobe Illustrator 21.0.0, SVG Export Plug-In . SVG Version: 6.00 Build 0)  -->
<svg version="1.1" id="图层_1" xmlns="http://www.w3.org/2000/svg" xmlns:xlink="http://www.w3.org/1999/xlink" x="0px" y="0px"
	 viewBox="0 0 200 200" enable-background="new 0 0 200 200" xml:space="preserve">
<path fill="#525151" d="M180.3,12.1H57c-2.8,0-3.4,3.6-0.8,4.4l21.9,6.7c1.4,0.4,2.8,0.6,4.3,0.6h91.9c4,0,7.2,2.9,7.2,6.6v112.8
	c0,3.6-3.2,6.6-7.2,6.6l-67.4,0c-5.3,0-5.2,12.5-0.1,12.5h73.5c8.1,0,14.7-6,14.7-13.4V25.5C195,18.1,188.4,12.1,180.3,12.1z"/>
<path fill="#525151" d="M87.5,31L18.3,8.6c-7-2.3-12.8,1.7-12.8,8.9v136.7c0,7.2,5.8,14.9,12.8,17.2l33.7,10.9
	c4.1-1.3,5.6-6.4,4.1-11l-39.7-12.8V20.2l72.8,23.5v138.4l-33.1-10.7c-1.4,3.6-2.8,7.3-4.1,11l35.5,11.5c7,2.3,12.8-1.7,12.8-8.9
	V48.2C100.3,41,94.6,33.3,87.5,31z"/>
<ellipse fill="#525151" cx="76.1" cy="108.7" rx="6.4" ry="8.5"/>
<path fill="#525151" d="M116.9,69.5c-3.7,0-6.6,2.9-6.6,6.6v6.4c0,3.7,2.9,6.6,6.6,6.6c3.7,0,6.6-2.9,6.6-6.6v-6.4
	C123.5,72.5,120.6,69.5,116.9,69.5z"/>
<path fill="#525151" d="M163.7,69.5c-3.7,0-6.6,2.9-6.6,6.6v6.4c0,3.7,2.9,6.6,6.6,6.6s6.6-2.9,6.6-6.6v-6.4
	C170.2,72.5,167.3,69.5,163.7,69.5z"/>
<path fill="#525151" d="M122.2,103.8c2.4,3.8,8.8,10.2,18.1,10.2s15.8-6.3,18.2-10.1c1.9-3,1.1-7.1-1.9-9c-3-1.9-7.1-1.1-9,1.9
	c0,0-2.8,4.1-7.1,4.1c-4.2,0-6.8-3.8-7-4.1c-1.9-3-5.9-4-9-2C121.2,96.6,120.2,100.7,122.2,103.8z"/>
</svg>
