<?xml version="1.0" encoding="utf-8"?>
<!-- Generator: Adobe Illustrator 21.0.0, SVG Export Plug-In . SVG Version: 6.00 Build 0)  -->
<svg version="1.1" id="图层_1" xmlns="http://www.w3.org/2000/svg" xmlns:xlink="http://www.w3.org/1999/xlink" x="0px" y="0px"
	 viewBox="0 0 200 200" enable-background="new 0 0 200 200" xml:space="preserve">
<path d="M135.9,163H64.3c-8.3,0-15-6.8-15-15V60c0-8.3,6.8-15,15-15h71.7c8.3,0,15,6.8,15,15v88C150.9,156.3,144.2,163,135.9,163z
	 M96,96L96,96c0-0.4-0.3-0.7-0.7-0.7H91c-0.4,0-0.7,0.3-0.7,0.7v0c0,0.4,0.3,0.7,0.7,0.7h4.3C95.7,96.7,96,96.4,96,96z"/>
<path fill="#515151" d="M75.7,41.1c3.4,0,6.1-2.7,6.1-6.1v-2.8h36.6V35c0,3.4,2.7,6.1,6.1,6.1c3.4,0,6.1-2.7,6.1-6.1V18.7
	c0-3.4-2.7-6.1-6.1-6.1s-6.1,2.7-6.1,6.1v1.3H81.8v-1.3c0-3.4-2.7-6.1-6.1-6.1c-3.4,0-6.1,2.7-6.1,6.1V35
	C69.6,38.3,72.3,41.1,75.7,41.1z"/>
<path fill="#515151" d="M78.3,60.7c-3.4,0-6.1,2.7-6.1,6.1v6c0,3.4,2.7,6.1,6.1,6.1c3.4,0,6.1-2.7,6.1-6.1v-6
	C84.4,63.5,81.7,60.7,78.3,60.7z"/>
<path fill="#515151" d="M121.9,60.7c-3.4,0-6.1,2.7-6.1,6.1v6c0,3.4,2.7,6.1,6.1,6.1s6.1-2.7,6.1-6.1v-6
	C128,63.5,125.2,60.7,121.9,60.7z"/>
<path fill="#515151" d="M106.7,90.1c0,0-2.7,3.9-6.7,3.9c-3.9,0-6.3-3.5-6.5-3.8c-1.8-2.8-5.5-3.7-8.4-1.9c-2.9,1.8-3.7,5.5-2,8.4
	c2.2,3.5,8.2,9.5,16.8,9.5c8.6,0,14.7-5.9,16.9-9.4c1.8-2.8,1-6.5-1.8-8.4C112.3,86.5,108.6,87.3,106.7,90.1z"/>
<path fill="#515151" d="M148.2,19.9c-3.4,0-6.1,2.7-6.1,6.1s2.7,6.1,6.1,6.1c8.2,0,14.8,6.8,14.8,15.2v112.8
	c0,8.4-6.6,15.2-14.8,15.2l-96.2,0c-8.2,0-14.8-6.8-14.8-15.2l0-112.8c0-8.4,6.6-15.2,14.8-15.2c3.4,0,6.1-2.7,6.1-6.1
	s-2.7-6.1-6.1-6.1c-14.9,0-27,12.3-27,27.4v112.8c0,15.1,12.1,27.4,27,27.4l96.2,0c14.9,0,27-12.3,27-27.4V47.3
	C175.2,32.2,163.1,19.9,148.2,19.9z"/>
<path fill="#515151" d="M49.3,154.9c0,3.4,2.7,6.1,6.1,6.1h89.5c3.4,0,6.1-2.7,6.1-6.1c0-3.4-2.7-6.1-6.1-6.1H55.4
	C52,148.8,49.3,151.6,49.3,154.9z"/>
</svg>
