<?xml version="1.0" encoding="utf-8"?>
<!-- Generator: Adobe Illustrator 21.0.0, SVG Export Plug-In . SVG Version: 6.00 Build 0)  -->
<svg version="1.1" id="图层_1" xmlns="http://www.w3.org/2000/svg" xmlns:xlink="http://www.w3.org/1999/xlink" x="0px" y="0px"
	 viewBox="0 0 200 200" enable-background="new 0 0 200 200" xml:space="preserve">
<path fill="#515151" d="M185.4,85l-15.2-13.2V54.7c0-3.4-2.7-6.1-6.1-6.1s-6.1,2.7-6.1,6.1v6.5l-54-46.9c0,0,0,0,0,0
	c-0.4-0.3-0.8-0.6-1.3-0.8c0,0,0,0,0,0c-0.1,0-0.2-0.1-0.2-0.1c0,0,0,0,0,0c-0.1,0-0.1-0.1-0.2-0.1c0,0,0,0-0.1,0
	c-0.1,0-0.1,0-0.2-0.1c0,0-0.1,0-0.1,0c-0.1,0-0.1,0-0.2-0.1c0,0-0.1,0-0.1,0c-0.1,0-0.1,0-0.2,0c0,0-0.1,0-0.1,0
	c-0.1,0-0.1,0-0.2,0c0,0-0.1,0-0.1,0c-0.1,0-0.1,0-0.2,0c0,0,0,0-0.1,0c-0.1,0-0.2,0-0.3,0c0,0,0,0,0,0c-1-0.1-1.9,0.1-2.8,0.5
	c0,0,0,0,0,0c-0.1,0-0.1,0.1-0.2,0.1c0,0-0.1,0-0.1,0c0,0-0.1,0-0.1,0.1c0,0-0.1,0-0.1,0.1c0,0-0.1,0-0.1,0.1
	c-0.1,0-0.1,0.1-0.2,0.1c0,0,0,0-0.1,0c-0.1,0-0.1,0.1-0.2,0.1c0,0,0,0,0,0c-0.1,0.1-0.1,0.1-0.2,0.2c0,0,0,0,0,0
	c-0.1,0.1-0.1,0.1-0.2,0.2c0,0,0,0,0,0l-56,48.6v-6.2c0-3.4-2.7-6.1-6.1-6.1s-6.1,2.7-6.1,6.1V73c0,0.2,0,0.3,0,0.5L14.8,85
	c-2.5,2.2-2.8,6.1-0.6,8.6c1.2,1.4,2.9,2.1,4.6,2.1c1.4,0,2.8-0.5,4-1.5L100.1,27l77.3,67.2c1.2,1,2.6,1.5,4,1.5
	c1.7,0,3.4-0.7,4.6-2.1C188.2,91.1,188,87.2,185.4,85z"/>
<path d="M100.8,65.3l41.9,36.3v43.1l1.8,10.6l-9.9-0.6H67l-8.7-1.4l0.5-8.6v-43.1L100.8,65.3z M100.8,65.3 M58.9,101.6l-8.7,5.2
	L49.5,98l8.7-7.2l39.7-34.5c0,0,0,0,0,0c0,0,0.1-0.1,0.1-0.1c0,0,0,0,0,0c0,0,0.1-0.1,0.2-0.1c0,0,0,0,0,0c0,0,0.1-0.1,0.1-0.1
	c0,0,0,0,0,0c0,0,0.1-0.1,0.1-0.1c0,0,0,0,0.1,0c0,0,0.1,0,0.1-0.1c0,0,0.1,0,0.1-0.1c0,0,0,0,0.1,0c0,0,0.1,0,0.1-0.1c0,0,0,0,0,0
	c0.6-0.3,1.3-0.4,2-0.3c0,0,0,0,0,0c0.1,0,0.1,0,0.2,0c0,0,0,0,0.1,0c0.1,0,0.1,0,0.2,0c0,0,0,0,0.1,0c0,0,0.1,0,0.1,0
	c0,0,0.1,0,0.1,0c0,0,0.1,0,0.1,0c0,0,0,0,0.1,0c0,0,0.1,0,0.1,0c0,0,0,0,0.1,0c0,0,0.1,0,0.1,0.1c0,0,0,0,0,0c0.1,0,0.1,0,0.2,0.1
	c0,0,0,0,0,0c0.1,0,0.1,0.1,0.2,0.1c0,0,0,0,0,0c0.3,0.2,0.6,0.4,0.9,0.6c0,0,0,0,0,0l38.3,33.3l8.7,7.5l0.6,3.5 M151.3,101.6v43.1
	c0,10.3-7.5,18.7-16.8,18.7H67c-9.3,0-16.8-8.4-16.8-18.7v-43.1c0-2.4,1.9-4.3,4.3-4.3c2.4,0,4.3,1.9,4.3,4.3v43.1
	c0,5.4,3.7,10,8.2,10h67.5c4.4,0,8.2-4.6,8.2-10v-43.1c0-2.4,1.9-4.3,4.3-4.3C149.4,97.3,151.3,99.2,151.3,101.6z"/>
<path fill="#515151" d="M165.2,94.7c-3.4,0-6.1,2.7-6.1,6.1v60.6c0,7.6-5.3,14.1-11.5,14.1h-95c-6.2,0-11.5-6.5-11.5-14.1l0-60.6
	c0-3.4-2.7-6.1-6.1-6.1c-3.4,0-6.1,2.7-6.1,6.1v60.6c0,14.5,10.6,26.3,23.7,26.3h95c13.1,0,23.7-11.8,23.7-26.3v-60.6
	C171.3,97.4,168.5,94.7,165.2,94.7z"/>
<path fill="#515151" d="M76.3,79.3c-3.4,0-6.1,2.7-6.1,6.1v6c0,3.4,2.7,6.1,6.1,6.1c3.4,0,6.1-2.7,6.1-6.1v-6
	C82.4,82,79.7,79.3,76.3,79.3z"/>
<path fill="#515151" d="M123.9,79.3c-3.4,0-6.1,2.7-6.1,6.1v6c0,3.4,2.7,6.1,6.1,6.1c3.4,0,6.1-2.7,6.1-6.1v-6
	C130,82,127.3,79.3,123.9,79.3z"/>
<path fill="#515151" d="M115.1,106.8c-2.8-1.8-6.6-1-8.4,1.8c0,0-2.6,3.8-6.6,3.8c-3.9,0-6.3-3.5-6.5-3.8c-1.8-2.8-5.5-3.7-8.4-1.9
	c-2.9,1.8-3.7,5.5-2,8.4c2.2,3.5,8.2,9.5,16.8,9.5c8.6,0,14.7-5.9,16.9-9.4C118.8,112.4,117.9,108.6,115.1,106.8z"/>
</svg>
