<?xml version="1.0" encoding="utf-8"?>
<!-- Generator: Adobe Illustrator 21.0.0, SVG Export Plug-In . SVG Version: 6.00 Build 0)  -->
<svg version="1.1" id="图层_1" xmlns="http://www.w3.org/2000/svg" xmlns:xlink="http://www.w3.org/1999/xlink" x="0px" y="0px"
	 viewBox="0 0 200 200" enable-background="new 0 0 200 200" xml:space="preserve">
<path fill="#525151" d="M181.7,50.7l-35.2-0.3c0,0-6.5,1.1-6.5,6.5c0,6.1,6.5,6.5,6.5,6.5l28-0.1c3.8,0,6.9,3.1,6.9,6.9v70.3
	c0,3.8-3.1,6.9-6.9,6.9H27.2c-3.8,0-6.9-3.1-6.9-6.9V70.2c0-3.8,3.1-6.9,6.9-6.9l28.1,0c0,0,6.4-0.2,6.4-5.9c0-6.4-6.4-6.7-6.4-6.7
	l-36,0c-6.6,0-12,5.4-12,12v86.2c0,6.6,5.4,12,12,12h162.3c6.6,0,12-5.4,12-12V62.7C193.7,56.1,188.3,50.7,181.7,50.7z"/>
<text transform="matrix(1 0 0 1 67.5 111)" fill="#525151" font-family="'MicrosoftYaHei-Bold'" font-size="23px">CARD</text>
<path fill="#525151" d="M78,36.7c-3.5,0-6.3,2.8-6.3,6.3v6.2c0,3.5,2.8,6.3,6.3,6.3c3.5,0,6.3-2.8,6.3-6.3V43
	C84.3,39.6,81.5,36.7,78,36.7z"/>
<path fill="#525151" d="M122.8,36.7c-3.5,0-6.3,2.8-6.3,6.3v6.2c0,3.5,2.8,6.3,6.3,6.3c3.5,0,6.3-2.8,6.3-6.3V43
	C129.1,39.6,126.4,36.7,122.8,36.7z"/>
<path fill="#525151" d="M83.1,69.5c2.3,3.6,8.5,9.8,17.3,9.8s15.1-6.1,17.4-9.7c1.9-2.9,1-6.8-1.9-8.7c-2.9-1.9-6.8-1-8.7,1.9
	c0,0-2.7,3.9-6.8,3.9c-4,0-6.5-3.6-6.7-3.9c-1.9-2.9-5.7-3.8-8.7-2C82.1,62.6,81.2,66.6,83.1,69.5z"/>
</svg>
