<?xml version="1.0" encoding="utf-8"?>
<!-- Generator: Adobe Illustrator 21.0.0, SVG Export Plug-In . SVG Version: 6.00 Build 0)  -->
<svg version="1.1" id="图层_1" xmlns="http://www.w3.org/2000/svg" xmlns:xlink="http://www.w3.org/1999/xlink" x="0px" y="0px"
	 viewBox="0 0 200 200" enable-background="new 0 0 200 200" xml:space="preserve">
<path fill="#535152" d="M75.1,20.1c-3.7,0-6.7,3-6.7,6.7v6.6c0,3.7,3,6.7,6.7,6.7s6.7-3,6.7-6.7v-6.6C81.9,23.1,78.9,20.1,75.1,20.1
	L75.1,20.1z"/>
<path fill="#535152" d="M123.1,20.1c-3.7,0-6.7,3-6.7,6.7v6.6c0,3.7,3,6.7,6.7,6.7c3.7,0,6.7-3,6.7-6.7v-6.6
	C129.9,23.1,126.9,20.1,123.1,20.1L123.1,20.1z"/>
<path fill="#535152" d="M80.5,59.7c2.4,3.9,9,10.5,18.5,10.5c9.5,0,16.2-6.5,18.6-10.4c2-3.1,1.1-7.3-2-9.3c-3.1-2-7.3-1.1-9.3,2
	c0,0-2.9,4.2-7.3,4.2c-4.3,0-7-3.9-7.2-4.2c-2-3.1-6.1-4-9.2-2.1C79.5,52.4,78.6,56.5,80.5,59.7L80.5,59.7z"/>
<path fill="#535152" d="M110.4,127.1H106V91.9c0-3.7-3-6.7-6.7-6.7c-3.7,0-6.7,3-6.7,6.7v35.2h-4.4c-9.9,0-17.9,8-17.9,17.9v22.2
	c0,9.9,8,17.9,17.9,17.9h17.6v-13.4H88.2c-2.4,0-4.5-2.1-4.5-4.5V145c0-2.4,2.1-4.5,4.5-4.5h22.2c2.4,0,4.5,2.1,4.5,4.5v22.2
	c0,2.4-2.1,4.5-4.5,4.5h-4.6v13.4h4.6c9.9,0,17.9-8,17.9-17.9V145C128.3,135.1,120.2,127.1,110.4,127.1z"/>
<path fill="#535152" d="M42.9,127.1h-3.8V69.6c0-7.6,6.2-13.9,13.9-13.9c3.7,0,6.7-3,6.7-6.7c0-3.7-3-6.7-6.7-6.7
	c-15.1,0-27.3,12.2-27.3,27.3v57.5h-5c-9.9,0-17.9,8-17.9,17.9v22.2c0,9.9,8,17.9,17.9,17.9h15v-13.4h-15c-2.4,0-4.5-2.1-4.5-4.5
	V145c0-2.4,2.1-4.5,4.5-4.5h22.2c2.4,0,4.5,2.1,4.5,4.5v22.2c0,2.4-2.1,4.5-4.5,4.5h-7.1v13.4h7.1c9.9,0,17.9-8,17.9-17.9V145
	C60.8,135.1,52.8,127.1,42.9,127.1z"/>
<path fill="#535152" d="M177.6,127.1h-4.7V69.6c0-15.1-12.2-27.3-27.3-27.3c-3.7,0-6.7,3-6.7,6.7c0,3.7,3,6.7,6.7,6.7
	c7.6,0,13.9,6.2,13.9,13.9v57.5h-4c-9.9,0-17.9,8-17.9,17.9v22.2c0,9.9,8,17.9,17.9,17.9h16.8v-13.4h-16.8c-2.4,0-4.5-2.1-4.5-4.5
	V145c0-2.4,2.1-4.5,4.5-4.5h22.2c2.4,0,4.5,2.1,4.5,4.5v22.2c0,2.4-2.1,4.5-4.5,4.5h-5.3v13.4h5.3c9.9,0,17.9-8,17.9-17.9V145
	C195.5,135.1,187.5,127.1,177.6,127.1z"/>
</svg>
