<?xml version="1.0" standalone="no"?><!DOCTYPE svg PUBLIC "-//W3C//DTD SVG 1.1//EN" "http://www.w3.org/Graphics/SVG/1.1/DTD/svg11.dtd"><svg t="1552389124844" class="icon" style="" viewBox="0 0 1024 1024" version="1.1" xmlns="http://www.w3.org/2000/svg" p-id="3985" xmlns:xlink="http://www.w3.org/1999/xlink" width="128" height="128"><defs><style type="text/css"></style></defs><path d="M941.19737 475.331595L814.040028 617.764282c-6.293823 7.051498-10.699602 14.741901-13.425185 22.985202-75.617003 57.420513-224.232934 156.996432-289.601868 200.400979-8.539204-0.108532-17.082503 1.466204-25.663686 4.837858l-185.03246 72.674357c-22.216264 8.724527-45.379621 5.784952-64.612284-8.199274s-28.869471-34.892988-26.874942-58.324604l16.026877-188.461452c1.558353-18.310141-3.791447-34.492649-16.00128-48.410322L82.970547 471.801238c-15.778073-17.979426-20.431632-40.771114-12.931671-63.342665s24.941847-38.267714 48.477898-43.633897l191.915018-43.744477c17.836082-4.064825 31.614507-13.672965 41.406946-28.875614L456.941591 129.043339c12.715632-19.73539 33.03566-30.675604 56.807205-30.577311 23.774617 0.101365 43.996352 11.214616 56.539972 31.060585l103.636648 163.987521c9.662406 15.291727 23.357896 25.017614 41.16531 29.231926l191.479866 45.309998c23.491001 5.556626 40.799782 21.405347 48.105204 44.040379 7.306446 22.635033 2.456301 45.385765-13.478426 63.235158zM800.001536 697.381605l11.971267 157.266738c1.787704 23.440831-8.030333 44.266658-27.380741 58.08911-19.35348 13.816309-42.536292 16.567488-64.672693 7.658663l-154.006687-61.968612L800.001536 697.381605z" p-id="3986" data-spm-anchor-id="a313x.7781069.0.i4" class="selected" fill="#03A9F4"></path></svg>