<?xml version="1.0" encoding="utf-8"?>
<!-- Generator: Adobe Illustrator 21.0.0, SVG Export Plug-In . SVG Version: 6.00 Build 0)  -->
<svg version="1.1" id="图层_1" xmlns="http://www.w3.org/2000/svg" xmlns:xlink="http://www.w3.org/1999/xlink" x="0px" y="0px"
	 viewBox="0 0 200 200" style="enable-background:new 0 0 200 200;" xml:space="preserve">
<style type="text/css">
	.st0{fill:#26C5FE;}
</style>
<path class="st0" d="M76,101.2c-3.3,0-6.1,2.7-6.1,6.1v5.9c0,3.3,2.7,6.1,6.1,6.1s6.1-2.7,6.1-6.1v-5.9
	C82.1,103.9,79.4,101.2,76,101.2z"/>
<path class="st0" d="M123.3,101.2c-3.3,0-6.1,2.7-6.1,6.1v5.9c0,3.3,2.7,6.1,6.1,6.1s6.1-2.7,6.1-6.1v-5.9
	C129.3,103.9,126.6,101.2,123.3,101.2z"/>
<path class="st0" d="M114.6,128.7c-2.8-1.8-6.5-1-8.4,1.7c0,0-2.6,3.8-6.6,3.8c-3.9,0-6.3-3.5-6.5-3.8c-1.8-2.8-5.5-3.6-8.3-1.9
	c-2.8,1.8-3.7,5.5-1.9,8.3c2.2,3.5,8.1,9.4,16.7,9.4c8.5,0,14.6-5.9,16.8-9.4C118.2,134.2,117.4,130.5,114.6,128.7z"/>
<path class="st0" d="M180.2,152.5c-3.3,0-6.1,2.7-6.1,6.1v1.8c0,7.8-6.3,14.1-14.1,14.1l-121.1,0c-7.8,0-14.1-6.3-14.1-14.1V73
	c4.1,2.4,8.9,3.9,14.1,3.9h123.2c7.4,0,12.1,4.5,12.1,11.5v0.7c0,3.3,2.7,6.1,6.1,6.1s6.1-2.7,6.1-6.1V52.7
	c0-12.2-7.5-24.6-24.2-24.6h-0.7c-4.6-8.9-14.5-15.1-25.9-15.1H67.6c-11.5,0-21.4,6.2-25.9,15.1h-2.7c-13.7,0-24.9,9.7-26.1,22.1
	c-0.1,0.4-0.1,0.8-0.1,1.2v108.9c0,14.5,11.8,26.2,26.2,26.2H160c12,0,22.2-8.2,25.3-19.2c0.6-0.9,0.9-2.1,0.9-3.3v-5.6
	C186.3,155.2,183.6,152.5,180.2,152.5z M38.9,40.3v13.1c0,3.3,2.7,6.1,6.1,6.1s6.1-2.7,6.1-6.1V39.3c0-7.8,7.4-14.1,16.6-14.1h67.8
	c9.1,0,16.6,6.3,16.6,14.1v14.1c0,3.3,2.7,6.1,6.1,6.1c3.3,0,6.1-2.7,6.1-6.1v-13c9.1,1,10.1,8.8,10.1,12.3v14.9
	c-3.5-1.8-7.6-2.9-12.1-2.9l-123.2,0c-7.8,0-14.1-5.5-14.1-12.2S31.1,40.3,38.9,40.3z"/>
<path class="st0" d="M67.8,47.4h68c3.3,0,6.1-2.7,6.1-6.1c0-3.3-2.7-6.1-6.1-6.1h-68c-3.3,0-6.1,2.7-6.1,6.1
	C61.8,44.6,64.5,47.4,67.8,47.4z"/>
<path class="st0" d="M181.5,101.3h-22.7c-12.6,0-22.9,10-22.9,22.2s10.3,22.2,22.9,22.2h22.7c3.3,0,6.1-2.7,6.1-6.1l0-32.3
	C187.5,104,184.8,101.3,181.5,101.3z M175.4,133.6h-16.7c-6,0-10.8-4.5-10.8-10.1s4.9-10.1,10.8-10.1h16.7L175.4,133.6z"/>
</svg>
