<?xml version="1.0" encoding="utf-8"?>
<!-- Generator: Adobe Illustrator 21.0.0, SVG Export Plug-In . SVG Version: 6.00 Build 0)  -->
<svg version="1.1" id="图层_1" xmlns="http://www.w3.org/2000/svg" xmlns:xlink="http://www.w3.org/1999/xlink" x="0px" y="0px"
	 viewBox="0 0 834 834" style="enable-background:new 0 0 834 834;" xml:space="preserve">
<style type="text/css">
	.st0{fill:#FF00AA;}
	.st1{fill:url(#SVGID_1_);}
	.st2{fill:#FFFFFF;}
</style>
<ellipse class="st0" cx="416.5" cy="417.6" rx="416.6" ry="416.2"/>
<radialGradient id="SVGID_1_" cx="417" cy="417" r="417" gradientUnits="userSpaceOnUse">
	<stop  offset="0" style="stop-color:#FFFFFF;stop-opacity:0.5"/>
	<stop  offset="0.8683" style="stop-color:#F8F8F7;stop-opacity:0.5"/>
	<stop  offset="0.9834" style="stop-color:#FFFFFF;stop-opacity:0.7"/>
</radialGradient>
<circle class="st1" cx="417" cy="417" r="417"/>
<path class="st2" d="M530.2,288.1l71-0.4c9.6,0,17.5,7.9,17.5,17.5V407c0,0,3.6,10.6,15.4,10.6c11.8,0,15.6-10.6,15.6-10.6V286.2
	c0-16.7-13.7-30.4-30.4-30.4l-89.1-0.7c0,0-16.5,2.8-16.5,16.4C513.8,287.1,530.2,288.1,530.2,288.1z"/>
<path class="st2" d="M392.6,500.9H228c-9.6,0-17.5-7.9-17.5-17.5V305.3c0-9.6,7.9-17.5,17.5-17.5l71.3,0c0,0,16.1-0.6,16.1-15
	c0-16.2-16.1-16.9-16.1-16.9l-91.2-0.1c-16.7,0-30.4,13.7-30.4,30.4v218.4c0,16.7,13.7,30.4,30.4,30.4h184.6c0,0,16.3-0.3,16.3-15.9
	C408.8,503.5,392.6,500.9,392.6,500.9z"/>
<path class="st2" d="M356.7,220.3c-8.9,0-15.9,7.1-15.9,15.9v15.7c0,8.9,7.1,15.9,15.9,15.9s15.9-7.1,15.9-15.9v-15.7
	C372.6,227.7,365.6,220.3,356.7,220.3z"/>
<path class="st2" d="M470.3,220.3c-8.9,0-15.9,7.1-15.9,15.9v15.7c0,8.9,7.1,15.9,15.9,15.9s15.9-7.1,15.9-15.9v-15.7
	C486.2,227.7,479.2,220.3,470.3,220.3z"/>
<path class="st2" d="M369.5,303.6c5.7,9.1,21.4,24.8,43.9,24.8c22.5,0,38.4-15.4,44.1-24.5c4.7-7.3,2.6-17.2-4.7-21.9
	c-7.3-4.7-17.2-2.6-21.9,4.7c0,0-6.8,9.9-17.2,9.9c-10.2,0-16.5-9.1-17-9.9c-4.7-7.3-14.4-9.7-21.9-5
	C367.2,286.2,364.8,296.1,369.5,303.6z"/>
<path class="st2" d="M652.1,461.5c-5.3-5.3-13.8-5.3-19.1,0l-8.3,8.3c-17-30-49.3-49.7-84.7-49.7c-42.7,0-81,28.6-93.2,69.5
	c-2.1,7.2,1.9,14.7,9.1,16.8c7.2,2.1,14.7-1.9,16.8-9.1c8.8-29.5,36.5-50.1,67.3-50.1s58.5,20.6,67.3,50.1c0.1,0.2,0.2,0.4,0.3,0.7
	c0.1,0.3,0.2,0.6,0.4,0.9c0.2,0.5,0.5,1,0.8,1.5c0.1,0.2,0.2,0.5,0.4,0.7c0.5,0.7,1,1.4,1.6,1.9c0,0,0,0,0,0c0,0,0.1,0.1,0.1,0.1
	c0.6,0.5,1.2,1,1.8,1.5c0.2,0.2,0.5,0.3,0.7,0.4c0.5,0.3,0.9,0.5,1.4,0.8c0.3,0.1,0.5,0.2,0.8,0.3c0.5,0.2,1.1,0.4,1.6,0.5
	c0.2,0.1,0.4,0.1,0.7,0.2c0.8,0.1,1.6,0.2,2.4,0.2c0.8,0,1.5-0.1,2.3-0.2c0.2,0,0.5-0.1,0.7-0.2c0.3-0.1,0.6-0.1,0.8-0.2
	c0.2-0.1,0.4-0.2,0.6-0.2c0.5-0.2,0.9-0.3,1.3-0.6c0.4-0.2,0.8-0.4,1.2-0.6c0.4-0.2,0.7-0.5,1.1-0.7c0.4-0.3,0.8-0.6,1.1-0.9
	c0.1-0.1,0.3-0.2,0.5-0.4l22.4-22.4C657.4,475.3,657.4,466.7,652.1,461.5L652.1,461.5z"/>
<path class="st2" d="M626.5,528.3c-7.1-2.1-14.7,1.9-16.8,9.1c-8.8,29.5-36.5,50.1-67.3,50.1c-30.8,0-58.5-20.6-67.3-50.1
	c-0.1-0.2-0.2-0.4-0.2-0.6c-0.2-0.5-0.3-0.9-0.5-1.3c-0.2-0.4-0.4-0.8-0.6-1.2c-0.2-0.4-0.5-0.7-0.7-1c-0.3-0.4-0.6-0.8-0.9-1.2
	c-0.1-0.1-0.2-0.3-0.4-0.5c-0.1-0.1-0.3-0.2-0.5-0.4c-0.4-0.3-0.7-0.6-1.1-0.9c-0.3-0.2-0.7-0.5-1-0.7c-0.4-0.2-0.8-0.4-1.2-0.6
	c-0.4-0.2-0.8-0.4-1.2-0.5c-0.4-0.1-0.8-0.3-1.2-0.4c-0.4-0.1-0.8-0.2-1.3-0.3c-0.4-0.1-0.9-0.1-1.3-0.1c-0.4,0-0.9,0-1.3,0
	c-0.4,0-0.8,0.1-1.2,0.1c-0.5,0.1-1,0.2-1.4,0.3c-0.2,0-0.4,0.1-0.6,0.1c-0.2,0.1-0.4,0.2-0.5,0.2c-0.5,0.2-0.9,0.3-1.4,0.6
	c-0.4,0.2-0.8,0.4-1.1,0.6c-0.4,0.2-0.7,0.5-1.1,0.7c-0.4,0.3-0.8,0.6-1.1,0.9c-0.1,0.1-0.3,0.2-0.5,0.4l-22.4,22.4
	c-5.3,5.3-5.3,13.8,0,19.1c2.6,2.6,6.1,4,9.6,4c3.5,0,6.9-1.3,9.6-4l8.3-8.3c17,30,49.3,49.7,84.7,49.7c42.7,0,81-28.6,93.2-69.5
	C637.7,538,633.6,530.4,626.5,528.3L626.5,528.3z"/>
</svg>
