<?xml version="1.0" standalone="no"?><!DOCTYPE svg PUBLIC "-//W3C//DTD SVG 1.1//EN" "http://www.w3.org/Graphics/SVG/1.1/DTD/svg11.dtd"><svg t="1547023962163" class="icon" style="" viewBox="0 0 1024 1024" version="1.1" xmlns="http://www.w3.org/2000/svg" p-id="1262" xmlns:xlink="http://www.w3.org/1999/xlink" width="200" height="200"><defs><style type="text/css"></style></defs><path d="M962 844.032c39.984 40.768 62 94 62 149.968a30 30 0 0 1-30 30H30A30 30 0 0 1 0 994c0-55.96 22.016-109.2 62-149.968V450C62 201.264 263.296 0 512 0c248.736 0 450 201.296 450 450v394.032z m-120-304.032c33.088 0 60-26.912 60-60s-26.912-60-60-60v120z m60 43.856a119.216 119.216 0 0 1-60 16.144h-1.376a328.528 328.528 0 0 1-74.256 180h45.632c31.496 0 62.08 7.136 90 20.68V583.856zM712.544 115.632a387.704 387.704 0 0 1-18.384 59.208A330.288 330.288 0 0 1 829.472 360h12.528c18.672 0 36.368 4.288 52.144 11.936C872 263.36 804.576 171.04 712.544 115.632z m-58.2 568.4a30 30 0 0 1-2.32 42.368A209.56 209.56 0 0 1 512 780c-51.72 0-101.44-19.04-140.016-53.6a30 30 0 1 1 40.04-44.68A149.64 149.64 0 0 0 512 720c36.92 0 72.424-13.6 99.976-38.28a30 30 0 0 1 42.368 2.32zM392 540a30 30 0 1 1 0-60 30 30 0 0 1 0 60z m240 0a30 30 0 1 1 0-60 30 30 0 0 1 0 60z m150-90a270.144 270.144 0 0 0-114.68-220.856A389.936 389.936 0 0 1 332 420H243.672a273.344 273.344 0 0 0-1.672 30v120C242 718.88 363.12 840 512 840s270-121.12 270-270v-120zM512 60c-188.32 0-345.888 134.168-382.144 311.936A119.256 119.256 0 0 1 182 360H332c161.512 0 297.08-114.24 324.92-272.064A387.952 387.952 0 0 0 512 60z m-330 360c-33.088 0-60 26.912-60 60s26.912 60 60 60v-120z m-60 163.856v216.824A205.736 205.736 0 0 1 212 780h45.632A328.528 328.528 0 0 1 183.376 600h-1.376c-21.848 0-42.336-5.896-60-16.144zM63.032 964h897.936c-14.224-69.704-76.672-124-148.968-124H701.52A328.16 328.16 0 0 1 512 900a328.16 328.16 0 0 1-189.52-60H212c-72.296 0-134.744 54.296-148.968 124z" fill="#525151" p-id="1263"></path></svg>