<?xml version="1.0" encoding="utf-8"?>
<!-- Generator: Adobe Illustrator 21.0.0, SVG Export Plug-In . SVG Version: 6.00 Build 0)  -->
<svg version="1.1" id="图层_1" xmlns="http://www.w3.org/2000/svg" xmlns:xlink="http://www.w3.org/1999/xlink" x="0px" y="0px"
	 viewBox="0 0 200 200" enable-background="new 0 0 200 200" xml:space="preserve">
<path d="M68.9,70.1c-1.7,1.1-16.1,11.1-16.1,23.5v55.7c0,9.4,8.3,17.1,18.5,17.1h56.9c10.2,0,18.5-7.7,18.5-17.1l0-55.7
	c0-13.7-15.7-23.2-16.3-23.6"/>
<path fill="#515151" d="M143.9,49.8c-2.9-1.7-6.6-0.8-8.4,2.1c-1.7,2.9-0.8,6.6,2.1,8.4C142.5,63.2,155,73,155,83.5v79.6
	c0,6.7-6.4,12.2-14.2,12.2l-43.7,0v-51.2h3.6c3.4,0,6.1-2.7,6.1-6.1c0-3.4-2.7-6.1-6.1-6.1h-8.1c-0.3,0-0.5,0-0.8,0.1
	c-0.3,0-0.5-0.1-0.8-0.1c-3.4,0-6.1,2.7-6.1,6.1v57.3H59.4c-7.8,0-14.2-5.5-14.2-12.2l0-39h25.5c3.4,0,6.1-2.7,6.1-6.1
	c0-3.4-2.7-6.1-6.1-6.1H45.2V83.5c0-9.5,12.7-20.1,17.6-23.4c2.8-1.9,3.6-5.6,1.7-8.5c-1.9-2.8-5.6-3.6-8.5-1.7
	C53.7,51.5,33,65.7,33,83.5v79.6c0,13.4,11.9,24.4,26.4,24.4h81.3c14.6,0,26.4-10.9,26.4-24.4l0-79.6
	C167.2,63.9,144.8,50.4,143.9,49.8z"/>
<path fill="#515151" d="M63.5,42.2c3.4,0,6.1-2.7,6.1-6.1c0-6.3,5.9-11.3,13.2-11.3h34.7c7.3,0,13.2,5.1,13.2,11.3
	c0,3.4,2.7,6.1,6.1,6.1c3.4,0,6.1-2.7,6.1-6.1c0-13-11.4-23.5-25.4-23.5H82.8c-14,0-25.4,10.6-25.4,23.5
	C57.4,39.5,60.1,42.2,63.5,42.2z"/>
<path fill="#515151" d="M118.4,46.9c3.4,0,6.1-2.7,6.1-6.1c0-3.4-2.7-6.1-6.1-6.1H81.8c-3.4,0-6.1,2.7-6.1,6.1
	c0,3.4,2.7,6.1,6.1,6.1H118.4z"/>
<path fill="#515151" d="M79.8,59c-3.4,0-6.1,2.7-6.1,6.1v6.1c0,3.4,2.7,6.1,6.1,6.1c3.4,0,6.1-2.7,6.1-6.1v-6.1
	C85.9,61.8,83.1,59,79.8,59z"/>
<path fill="#515151" d="M120.4,59c-3.4,0-6.1,2.7-6.1,6.1v6.1c0,3.4,2.7,6.1,6.1,6.1c3.4,0,6.1-2.7,6.1-6.1v-6.1
	C126.5,61.8,123.8,59,120.4,59z"/>
<path fill="#515151" d="M100,102.4c8.6,0,14.7-5.9,16.9-9.4c1.8-2.8,1-6.5-1.8-8.4c-2.8-1.8-6.6-1.1-8.4,1.7c0,0-2.7,3.9-6.7,3.9
	c-3.9,0-6.3-3.5-6.5-3.8c-1.8-2.8-5.5-3.7-8.4-1.9c-2.9,1.8-3.7,5.5-2,8.4C85.4,96.5,91.4,102.4,100,102.4z"/>
</svg>
