<?xml version="1.0" encoding="utf-8"?>
<!-- Generator: Adobe Illustrator 21.0.0, SVG Export Plug-In . SVG Version: 6.00 Build 0)  -->
<svg version="1.1" id="图层_1" xmlns="http://www.w3.org/2000/svg" xmlns:xlink="http://www.w3.org/1999/xlink" x="0px" y="0px"
	 viewBox="0 0 834 834" style="enable-background:new 0 0 834 834;" xml:space="preserve">
<style type="text/css">
	.st0{fill:#525151;}
	.st1{fill:#86BFF8;}
</style>
<path class="st0" d="M798.7,436.2c-16.2,0-29.4,13.1-29.4,29.4v234.8c0,37.8-30.7,68.5-68.5,68.5H133.3c-37.8,0-68.5-30.7-68.5-68.5
	V465.5c0-16.2-13.1-29.4-29.4-29.4S6.1,449.3,6.1,465.5v234.8c0,70.1,57.1,127.2,127.2,127.2h567.5c70.1,0,127.2-57.1,127.2-127.2
	V465.5C828.1,449.3,814.9,436.2,798.7,436.2L798.7,436.2z"/>
<path class="st0" d="M700.9,5.6H133.3C63.2,5.6,6.1,62.7,6.1,132.8v234.8c0,16.2,13.1,29.4,29.4,29.4s29.4-13.1,29.4-29.4V132.8
	c0-37.8,30.7-68.5,68.5-68.5h567.5c37.8,0,68.5,30.7,68.5,68.5v234.8c0,16.2,13.1,29.4,29.4,29.4s29.4-13.1,29.4-29.4V132.8
	C828.1,62.7,771,5.6,700.9,5.6L700.9,5.6z"/>
<path class="st0" d="M342.4,510.2c0-16.2-13.1-29.4-29.4-29.4c-16.2,0-29.4,13.1-29.4,29.4v28.6c0,16.2,13.1,29.4,29.4,29.4
	c16.2,0,29.4-13.1,29.4-29.4V510.2z"/>
<path class="st0" d="M551.9,538.8v-28.6c0-16.2-13.1-29.4-29.4-29.4c-16.2,0-29.4,13.1-29.4,29.4v28.6c0,16.2,13.1,29.4,29.4,29.4
	C538.8,568.1,551.9,555,551.9,538.8z"/>
<path class="st0" d="M417.7,679.7c41.3,0,70.6-28.5,81.4-45.3c8.7-13.7,4.8-31.8-8.9-40.6c-13.7-8.7-31.8-4.8-40.6,8.9
	c-0.1,0.2-12.6,18.3-31.9,18.3c-18.8,0-30.5-17-31.3-18.2c-8.6-13.6-26.6-17.7-40.3-9.2c-13.8,8.6-18,26.7-9.4,40.4
	C347.3,651,376.2,679.7,417.7,679.7L417.7,679.7z"/>
<path class="st1" d="M721.5,211.2c-4-4-100.4-97-304.4-97c-204,0-300.4,93.1-304.4,97c-8.9,8.8-11.2,22.3-5.8,33.5l75.4,157.7
	c4.1,8.5,11.8,14.8,21.1,16.4c1.8,0.3,3.5,0.5,5.3,0.5c7.5,0,14.6-2.8,20.1-8.2c0.5-0.4,49.8-43.6,188.2-43.6s187.8,43.2,187.8,43.3
	c6.8,6.6,16.3,9.5,25.6,7.9h0c9.3-1.7,17.3-7.7,21.3-16.2l32.9-68.7l-44-44l-27.4,57.2c-33.4-17.2-94.9-38.1-196.3-38.1
	c-14.9,0-28.9,0.5-42.1,1.3L350,234c-5.1-15.4-21.6-23.8-37-18.7c-15.4,5.1-23.8,21.6-18.7,37l21.2,64.6
	c-43.6,7.7-74.3,19.5-94.6,29.9l-51-106.6c31.7-22.6,111.8-67.4,247.3-67.4c134.2,0,215.1,45,247.2,67.6l-23.6,49.2
	c14.7,14.7,29.3,29.3,44,44l42.6-89C732.7,233.4,730.4,220,721.5,211.2z" fill="#459df5"/>
</svg>
