<?xml version="1.0" standalone="no"?><!DOCTYPE svg PUBLIC "-//W3C//DTD SVG 1.1//EN" "http://www.w3.org/Graphics/SVG/1.1/DTD/svg11.dtd"><svg t="1552052212887" class="icon" style="" viewBox="0 0 1024 1024" version="1.1" xmlns="http://www.w3.org/2000/svg" p-id="31065" xmlns:xlink="http://www.w3.org/1999/xlink" width="128" height="128"><defs><style type="text/css"></style></defs><path d="M702.144 68.032 321.856 68.032c-34.112 0-61.76 27.648-61.76 61.696l0 764.48c0 33.984 27.648 61.824 61.76 61.824l380.224 0c34.24 0 61.76-27.84 61.76-61.824L763.84 129.728C763.904 95.68 736.384 68.032 702.144 68.032zM502.72 930.88c-17.152 0-30.848-13.888-30.848-30.912 0-17.024 13.76-30.912 30.848-30.912 17.024 0 30.848 13.952 30.848 30.912C533.632 916.992 519.744 930.88 502.72 930.88zM728.512 842.112 295.488 842.112 295.488 108.48l433.024 0L728.512 842.112z" p-id="31066"></path></svg>