<?xml version="1.0" standalone="no"?><!DOCTYPE svg PUBLIC "-//W3C//DTD SVG 1.1//EN" "http://www.w3.org/Graphics/SVG/1.1/DTD/svg11.dtd"><svg t="1552052717503" class="icon" style="" viewBox="0 0 1024 1024" version="1.1" xmlns="http://www.w3.org/2000/svg" p-id="33938" xmlns:xlink="http://www.w3.org/1999/xlink" width="128" height="128"><defs><style type="text/css"></style></defs><path d="M634.35943 419.014135 385.261912 419.014135c-17.14978 0-31.13719-13.987409-31.13719-31.13719 0-17.14978 13.987409-31.13719 31.13719-31.13719L634.35943 356.739755c17.27141 0 31.13719 13.987409 31.13719 31.13719C665.49662 405.026725 651.63084 419.014135 634.35943 419.014135L634.35943 419.014135zM575.247421 543.562893 385.261912 543.562893c-17.14978 0-31.13719-13.987409-31.13719-31.13719 0-17.14978 13.987409-31.13719 31.13719-31.13719l189.985509 0c17.27141 0 31.13719 13.987409 31.13719 31.13719C606.384611 529.575484 592.518831 543.562893 575.247421 543.562893L575.247421 543.562893zM947.920661 450.151324c0-206.040622-195.580473-373.646276-435.920656-373.646276C271.659822 76.505048 76.079349 244.110702 76.079349 450.151324c0 113.358831 61.301342 219.906402 168.213802 292.519302 14.230669 9.730372 33.569783 5.959853 43.300154-8.270816 9.608742-14.230669 5.959853-33.569783-8.270816-43.300154C189.68144 630.406462 138.353729 542.468227 138.353729 450.151324c0-171.741062 167.605654-311.371897 373.646276-311.371897 206.040622 0 373.646276 139.630835 373.646276 311.371897 0 171.741062-167.605654 311.371897-373.646276 311.371897-1.946074 0-3.52726 0.729778-5.473334 1.094667-14.717187-2.675852-29.677634 5.108445-34.786079 19.704003-5.959853 16.906521-45.124599 45.367858-91.587124 71.761492 17.028151-56.679416 8.878964-68.720751 3.40563-76.869937-6.568001-9.730372-17.39304-15.446965-29.069486-15.446965-17.14978 0-31.13719 13.86578-31.13719 31.13719 0 5.716593 1.459556 10.946668 4.135408 15.568595-3.162371 17.757928-16.784891 59.233638-32.110227 97.182088-4.743556 11.798076-1.946074 25.298967 7.176149 34.177931 5.959853 5.716593 13.74415 8.757335 21.650077 8.757335 4.257038 0 8.514075-0.851408 12.649483-2.675852 35.515857-15.811854 143.644613-67.261195 182.5661-122.237795C756.353966 820.027082 947.920661 654.002613 947.920661 450.151324L947.920661 450.151324zM947.920661 450.151324" p-id="33939"></path></svg>