<?xml version="1.0" encoding="iso-8859-1"?>
<!-- Generator: Adobe Illustrator 21.0.0, SVG Export Plug-In . SVG Version: 6.00 Build 0)  -->
<svg version="1.1" id="&#x56FE;&#x5C42;_1" xmlns="http://www.w3.org/2000/svg" xmlns:xlink="http://www.w3.org/1999/xlink" x="0px"
	 y="0px" viewBox="0 0 200 200" enable-background="new 0 0 200 200" xml:space="preserve">
<path d="M139,164.91H61.5c-10.45,0-19-8.55-19-19v-77c0-10.45,8.55-19,19-19H139c10.45,0,19,8.55,19,19v77
	C158,156.36,149.45,164.91,139,164.91z"/>
<!-- <path fill="#515151" d="M78.3,101.8c-3.4,0-6.1,2.7-6.1,6.1v5.9c0,3.4,2.7,6.1,6.1,6.1s6.1-2.7,6.1-6.1v-5.9
	C84.3,104.5,81.6,101.8,78.3,101.8z"/> -->
<!-- <path fill="#515151" d="M121.6,101.8c-3.4,0-6.1,2.7-6.1,6.1v5.9c0,3.4,2.7,6.1,6.1,6.1s6.1-2.7,6.1-6.1v-5.9
	C127.7,104.5,125,101.8,121.6,101.8z"/> -->
<path fill="#515151" d="M114.9,129.3c-2.8-1.8-6.5-1-8.4,1.7c0,0-2.6,3.8-6.6,3.8c-3.9,0-6.3-3.5-6.5-3.8c-1.8-2.8-5.5-3.7-8.3-1.9
	s-3.7,5.5-2,8.4c2.2,3.5,8.2,9.4,16.8,9.4c8.5,0,14.6-5.9,16.8-9.4C118.5,134.8,117.7,131.1,114.9,129.3z"/>
<path fill="#515151" d="M71.6,43c3.4,0,6.1-2.7,6.1-6.1v-2h44.5v2c0,3.4,2.7,6.1,6.1,6.1s6.1-2.7,6.1-6.1V18.7
	c0-3.4-2.7-6.1-6.1-6.1c-3.4,0-6.1,2.7-6.1,6.1v4H77.7v-4c0-3.4-2.7-6.1-6.1-6.1s-6.1,2.7-6.1,6.1v18.2C65.5,40.3,68.3,43,71.6,43z"
	/>
<path fill="#515151" d="M152.3,19.5c-3.4,0-6.1,2.7-6.1,6.1s2.7,6.1,6.1,6.1c10.2,0,18.4,8.4,18.4,18.8v23.6H29.2V50.5
	c0-10.4,8.3-18.8,18.4-18.8c3.4,0,6.1-2.7,6.1-6.1s-2.7-6.1-6.1-6.1c-16.9,0-30.6,13.9-30.6,31v106.1c0,17.1,13.7,31,30.6,31h104.7
	c16.9,0,30.6-13.9,30.6-31V50.5C182.9,33.4,169.1,19.5,152.3,19.5z M152.3,175.4H47.6c-10.2,0-18.4-8.4-18.4-18.8V86.3h141.5v70.3
	C170.7,166.9,162.4,175.4,152.3,175.4z"/>
</svg>
