<?xml version="1.0" encoding="utf-8"?>
<!-- Generator: Adobe Illustrator 21.0.0, SVG Export Plug-In . SVG Version: 6.00 Build 0)  -->
<svg version="1.1" id="图层_1" xmlns="http://www.w3.org/2000/svg" xmlns:xlink="http://www.w3.org/1999/xlink" x="0px" y="0px"
	 viewBox="0 0 200 200" style="enable-background:new 0 0 200 200;" xml:space="preserve">
<path d="M33.9,112.3c-0.7-5.4-0.7-10.9,0-16.3l-9.8-9.2l20.8-36.1l12.9,3.9c4.3-3.3,9.1-6.1,14.1-8.2L75,33.3h41.7l3.1,13.1
	c5.1,2.1,9.8,4.9,14.1,8.2l12.9-3.9l20.8,36.1l-9.8,9.2c0.7,5.4,0.7,10.9,0,16.3l9.8,9.2l-20.8,36.1l-12.9-3.9
	c-4.3,3.3-9.1,6.1-14.1,8.2l-3.1,13.1H75l-3.1-13.1c-5.1-2.1-9.8-4.8-14.2-8.2l-12.9,3.9l-20.8-36.1
	C24.1,121.5,33.9,112.3,33.9,112.3z M52.7,137.9l8.4-2.5l6.8,5.2c3.2,2.4,6.7,4.5,10.4,6l7.9,3.3l2,8.5h15.3l2-8.5l7.9-3.3
	c3.7-1.5,7.2-3.6,10.4-6l6.8-5.2l8.4,2.5l7.6-13.2l-6.4-6l1.1-8.5c0.5-4,0.5-8,0-12l-1.1-8.5l6.4-6l-7.6-13.2l-8.4,2.5l-6.8-5.2
	c-3.2-2.4-6.7-4.5-10.4-6l-7.9-3.3l-2-8.5H88.2l-2,8.5l-7.9,3.3c-3.7,1.5-7.2,3.6-10.4,6L61.2,73l-8.4-2.5l-7.6,13.2l6.4,6l-1.1,8.5
	c-0.5,4-0.5,8,0,12l1.1,8.5l-6.4,6L52.7,137.9L52.7,137.9z M95.8,116.7c6.9,0,12.5-5.6,12.5-12.5c0-6.9-5.6-12.5-12.5-12.5
	c-6.9,0-12.5,5.6-12.5,12.5C83.3,111.1,88.9,116.7,95.8,116.7z M95.8,133.3c-16.1,0-29.2-13.1-29.2-29.2S79.7,75,95.8,75
	c0,0,0,0,0,0c16.1,0,29.2,13.1,29.2,29.2C125,120.3,111.9,133.3,95.8,133.3z"/>
</svg>
