<?xml version="1.0" standalone="no"?><!DOCTYPE svg PUBLIC "-//W3C//DTD SVG 1.1//EN" "http://www.w3.org/Graphics/SVG/1.1/DTD/svg11.dtd"><svg t="1553603771956" class="icon" style="" viewBox="0 0 1024 1024" version="1.1" xmlns="http://www.w3.org/2000/svg" p-id="1993" xmlns:xlink="http://www.w3.org/1999/xlink" width="128" height="128"><defs><style type="text/css"></style></defs><path d="M768.367579 395.858787a184.814111 184.814111 0 0 1-138.89404-63.494418L418.581363 457.085548a190.483256 190.483256 0 0 1-12.472118 144.563185l202.388459 120.185864a187.081769 187.081769 0 0 1 158.736046-90.706312 196.1524 196.1524 0 1 1-188.782512 196.1524 199.553887 199.553887 0 0 1 0-20.975835l-226.765781-136.059468a183.113368 183.113368 0 0 1-113.38289 40.817841A192.750914 192.750914 0 0 1 50.086969 513.776993a192.750914 192.750914 0 0 1 188.782512-196.1524 184.814111 184.814111 0 0 1 138.894041 63.494419l210.892176-124.72118a200.687716 200.687716 0 0 1-9.070631-56.691445 189.349427 189.349427 0 1 1 378.131939 0 192.750914 192.750914 0 0 1-189.349427 196.1524z m0 549.340104a117.918206 117.918206 0 1 0-113.38289-117.918206 113.38289 113.38289 0 0 0 113.38289 117.918206zM238.869481 395.858787a117.918206 117.918206 0 0 0 0 235.269498 117.918206 117.918206 0 0 0 0-235.269498z m528.931184-314.070606a113.38289 113.38289 0 0 0-113.38289 117.918206 113.38289 113.38289 0 1 0 226.76578 0 113.38289 113.38289 0 0 0-112.815976-117.918206z" p-id="1994" fill="#03a9f4"></path></svg>