<?xml version="1.0" standalone="no"?><!DOCTYPE svg PUBLIC "-//W3C//DTD SVG 1.1//EN" "http://www.w3.org/Graphics/SVG/1.1/DTD/svg11.dtd"><svg t="1524282476818" class="icon" style="" viewBox="0 0 1024 1024" version="1.1" xmlns="http://www.w3.org/2000/svg" p-id="4567" xmlns:xlink="http://www.w3.org/1999/xlink" width="200" height="200"><defs><style type="text/css"></style></defs><path d="M816.64 412.16h-168.96L921.6 138.24 885.76 102.4 611.84 376.32V209.92c0-12.8-10.24-25.6-25.6-25.6-12.8 0-25.6 10.24-25.6 25.6V435.2c0 7.68 2.56 12.8 7.68 17.92 5.12 5.12 10.24 7.68 17.92 7.68h227.84c12.8 0 25.6-10.24 25.6-25.6 2.56-12.8-10.24-23.04-23.04-23.04zM435.2 563.2H207.36c-12.8 0-25.6 10.24-25.6 25.6 0 12.8 10.24 25.6 25.6 25.6h168.96L102.4 885.76 138.24 921.6l273.92-271.36v166.4c0 12.8 10.24 25.6 25.6 25.6s25.6-10.24 25.6-25.6V588.8c0-7.68-2.56-12.8-7.68-17.92-7.68-5.12-12.8-7.68-20.48-7.68z" p-id="4568" fill="#000000"></path></svg>