<?xml version="1.0" encoding="utf-8"?>
<!-- Generator: Adobe Illustrator 21.0.0, SVG Export Plug-In . SVG Version: 6.00 Build 0)  -->
<svg version="1.1" id="图层_1" xmlns="http://www.w3.org/2000/svg" xmlns:xlink="http://www.w3.org/1999/xlink" x="0px" y="0px"
	 viewBox="0 0 834 834" style="enable-background:new 0 0 834 834;" xml:space="preserve">
<style type="text/css">
	.st0{fill:#525151;}
	.st1{fill:#86BFF8;}
</style>
<path class="st0" d="M821.6,560.6l-87.9-271.1c-17.7-63.4-52.1-100.4-97.6-105.8c-4.4-0.5-7.7-4.1-7.7-8.5v-46.3
	c0-14.4-11.8-26-26.1-24.9c-12.6,0.9-22.5,11.4-22.5,24.2v46.2c0,4.7-3.8,8.6-8.6,8.6H434.7c-4.7,0-8.6-3.8-8.6-8.6v-45.5
	c0-14.4-11.8-26-26.1-24.9c-12.6,0.9-22.5,11.4-22.5,24.2v47c0,4.4-3.4,8.1-7.8,8.5c-45.9,4.9-78.7,40.4-97.6,105.3
	c-16.4,51.6-32.7,103.2-49.1,154.8c-2.2,6.9-2,14.3,0.7,21c3,7.5,7.6,16.2,15,24.6c1.7,1.9,3.4,3.7,5.1,5.3
	c4.6,4.4,12.2,2.5,14.1-3.5l60.8-187.9c18.7-64.3,44.7-71.8,62.6-71.8h243.3c19.5,0,46.2,12.4,62.5,71.4c0.1,0.3,0.2,0.7,0.3,1
	L773.7,570c0.3,1,0.5,2.2,0.4,3.2c-2.6,33.4-29.2,59.7-61.6,59.7l-170.9,0.6c-11.5,0-18.9,12.3-13.5,22.4c1.9,3.5,3.6,7.1,5.3,10.7
	c4.1,8.8,12.9,14.5,22.7,14.5l156.4,0.3c60.7,0,110.2-50.9,110.2-113.5C822.7,565.6,822.3,563,821.6,560.6z"/>
<path class="st1" d="M509.1,659.3c-11.9-18-28.2-36-39.3-48.1c-15.1-16.3-31.2-31.9-45.7-43.8c-22.8-18.9-33.2-23-39-24.3
	c-11.4-2.5-22.7,1.3-33.7,11.2c-7.3,6.8-13.9,15.6-20.4,24.4c-4.4,6.2-11.4,15.5-15.9,19.1l-0.2,0.2c-0.8,0.6-1.9,0.8-2.8,0.4H312
	c-0.1,0-0.1,0-0.2-0.1c-3.4-1.7-16-8.8-40.4-34.3c-19.4-20.3-39.9-45.6-54.8-67.8c-14-22.4-28.8-51.2-39.6-77.1
	c-13.3-32.8-14.7-46.9-14.6-50.5v-0.1c0.1-1,0.7-2,1.6-2.4l0.2-0.1c5.1-2.5,16.6-4.5,24.3-6.1c10.5-1.9,21.4-4,31.1-7.9
	c13.8-5.4,22.1-14.1,24.6-25.3c1.3-5.7,2.2-16.7-6-45c-5-17.7-12.6-38.6-21.2-59.2c-6.4-15.3-16.6-37.1-27.9-55.3
	c-12.7-20.3-23.1-30.1-34.2-32.5c-27.7-6.1-70.1,27.3-82.5,37.8c-15.8,13.4-54,48.9-62.7,88.2c-8.1,36.8,6.5,90,20,128.5
	C48,440.8,76.6,498.4,110,550.9l11.2,17.2c34.8,52,75.9,101.4,115.5,139.7c29.6,28.2,72.9,63.7,110.3,72c16.6,3.7,35,2.6,52.3-0.8
	l0.1-0.3c5.2-1.3,9.8-5.4,11-10.8c1.7-7.8-0.6-17.2-8.7-19c-2.3-0.5-6.1-0.3-9.3-0.8c-14.4-1.1-20.1,1.1-37.1-1.2
	c-23.7-5.2-53.8-33.3-91.3-69c-38.5-36.5-71.4-70.5-105-120.7l-18.7-30.7c-32.2-51.1-58.8-99.6-76.3-149.2
	c-17.2-48.2-22.1-85-17-108.3c4.6-20.7,18.4-42.3,46-66c59-47,57-34,90.5,37c7.6,18.2,13.5,34.8,18,50.5C207,310.1,208,320,202,322
	c-6.3,2.2-12.3,2.9-20,4.5c-9.3,1.9-30,6.5-38,9.5c-12.7,4.7-14.2,13.5-16.5,23.5c-1.1,5.2-3.8,23.2,16.5,72.5
	c11.4,27.5,24.6,57.7,39.5,81.5c0,0,41.9,57.6,62.5,79c37.1,38.6,64,43,64,43c9.9,2.2,20.6-2.9,30-12c6.2-5.9,14.8-13.7,20.5-21.5
	c4.7-6.2,10.3-11.3,15-16c4-4.2,9.4-4.7,25.5,8.5c13.1,11.3,28.1,24.7,41.8,39.1c36.3,38.1,53.9,63,43.4,70.8
	c-4,3-15.6,12.8-20.5,15.6l-3,2c-2.8,3.6-4.1,6.6-4.9,10.4c-1.7,7.8,5.9,15.7,14,17.5c4.1,0.9,7.9,0.2,11.1-1.8
	c18.3-11,38.9-26.5,42.7-43.4c0-0.1,0-0.2,0.1-0.4C527.1,692.4,522.2,678.7,509.1,659.3L509.1,659.3z" fill="#459df5"/>
<path class="st0" d="M407.2,302.5c-15.3,0-27.3,12.2-27.3,27.3v26.9c0,15.3,12.2,27.3,27.3,27.3s27.3-12.2,27.3-27.3v-26.9
	C434.4,315.2,422.4,302.5,407.2,302.5z"/>
<path class="st0" d="M602,302.5c-15.3,0-27.3,12.2-27.3,27.3v26.9c0,15.3,12.2,27.3,27.3,27.3s27.3-12.2,27.3-27.3v-26.9
	C629.2,315.2,617.2,302.5,602,302.5z"/>
<path class="st0" d="M429.1,445.3c9.8,15.6,36.7,42.5,75.3,42.5s65.8-26.4,75.6-42c8.1-12.5,4.5-29.5-8.1-37.5
	c-12.5-8.1-29.5-4.5-37.5,8.1c0,0-11.7,17-29.5,17c-17.5,0-28.3-15.6-29.1-17c-8.1-12.5-24.7-16.6-37.5-8.6
	C425.2,415.5,421.1,432.4,429.1,445.3z"/>
</svg>
